<svg xmlns="http://www.w3.org/2000/svg" version="1.1" xmlns:xlink="http://www.w3.org/1999/xlink" xmlns:svgjs="http://svgjs.com/svgjs" width="1000" height="1000"><rect width="1000" height="1000" rx="500" ry="500" fill="#d8dde9"></rect><g transform="matrix(1.27000254000508,0,0,1.27000254000508,50.00133435703515,50.00944234346599)"><svg xmlns="http://www.w3.org/2000/svg" version="1.1" xmlns:xlink="http://www.w3.org/1999/xlink" xmlns:svgjs="http://svgjs.com/svgjs" width="708.66" height="708.66"><svg id="Layer_1" data-name="Layer 1" xmlns="http://www.w3.org/2000/svg" viewBox="0 0 708.66 708.66">
  <defs>
    <style>
      .cls-1 {
        fill: #009444;
      }

      .cls-2 {
        fill: #572b0d;
      }
    </style>
  </defs>
  <g>
    <polygon class="cls-2" points="316.63 409.87 266.05 301.41 217.45 197.19 191.6 141.73 127.56 141.73 178.32 250.6 234.03 370.08 252.58 409.87 252.9 410.56 316.95 410.56 316.63 409.87"></polygon>
    <polygon class="cls-2" points="517.06 141.73 491.2 197.19 442.6 301.41 392.02 409.87 391.7 410.56 455.75 410.56 456.07 409.87 474.63 370.07 530.34 250.6 530.34 250.6 581.1 141.73 517.06 141.73"></polygon>
    <polygon class="cls-1" points="422.24 141.73 417.42 152.07 395.2 199.72 354.33 287.35 313.47 199.72 291.24 152.07 286.42 141.73 222.38 141.73 239.6 178.66 281.45 268.4 347.41 409.87 347.73 410.56 354.33 410.56 360.93 410.56 361.25 409.87 427.21 268.4 469.07 178.66 486.28 141.73 422.24 141.73"></polygon>
    <polygon class="cls-2" points="368.38 142.23 368.15 141.73 354.33 141.73 340.51 141.73 340.28 142.23 320.4 184.87 354.33 257.64 388.26 184.87 368.38 142.23"></polygon>
  </g>
  <g>
    <path class="cls-2" d="M82.03,537.93h-5.04c-.63,.13-1.25,.24-1.82,.36-.34-.14-.77-.28-1.37-.39l-.65,.22c-.18,.06-.34,.1-.52,.16l-.42,.8-.27,.53c-.35,.31-.61,.57-.79,.78-.2,.23-.29,.39-.29,.52,0,.28,.11,.49,.33,.65,.21,.14,.49,.22,.83,.22,.24,0,.55-.03,.95-.1,.38-.06,.69-.09,.92-.09,.17,0,1.05,.13,2.61,.38h.01s.01,0,.01,0c.65-.11,1.3-.22,1.93-.35h1.54c.18,0,.45,.03,.83,.08,.38,.06,.67,.08,.85,.08,.58,0,1.03-.19,1.35-.57,.31-.37,.46-.94,.46-1.67,0-.52-.12-.92-.34-1.19-.23-.27-.61-.4-1.11-.4Z"></path>
    <path class="cls-2" d="M227.78,521.52c.04-.36,.07-.66,.11-.92,.04-.25,.08-.43,.13-.54,.29-.61,.49-1.29,.6-1.99,.11-.7,.16-1.45,.16-2.23,0-.51-.08-.88-.24-1.15-.17-.28-.43-.42-.78-.42-.43,0-.84,.12-1.23,.35-.39,.23-.74,.58-1.06,1.04-.49,.9-.91,1.72-1.27,2.46-.72,1.41-1.34,2.66-1.87,3.75-.52,1.08-.94,2.05-1.25,2.86-.06,.13-.13,.37-.23,.72-.1,.35-.24,.81-.42,1.37-.13,.45-.25,.84-.39,1.17-.13,.33-.27,.61-.42,.88,0,.36-.06,.67-.17,.9-.11,.23-.27,.39-.49,.49-.52,.24-.95,.44-1.28,.61-.33,.17-.56,.31-.69,.4-.86,.76-1.55,1.35-2.05,1.77-.51,.43-.84,.72-1.01,.89-.38,.43-.78,.87-1.21,1.31-.43,.44-.86,.87-1.3,1.28-.2,.19-.38,.35-.56,.48-.19,.13-.33,.25-.42,.36-.45,.49-.84,.92-1.16,1.3-.33,.38-.56,.68-.66,.85l-.34,.21c-.52,.22-.94,.4-1.25,.54-.32,.15-.52,.27-.62,.37-.12,.12-.28,.28-.54,.53-.24,.23-.52,.54-.86,.97l-.07,.24-.12,.19s0,0,0,0c-.19,.16-.39,.29-.58,.38s-.35,.18-.44,.23c-.44,.25-.96,.47-1.53,.64-.57,.18-1.21,.29-1.88,.35-.43-.09-.8-.19-1.11-.29-.3-.1-.53-.21-.68-.32-.24-.14-.42-.34-.55-.62-.13-.28-.2-.6-.2-.97,0-.2,.04-.4,.13-.58,.09-.18,.19-.33,.31-.45,1.49-1.46,2.7-2.77,3.58-3.9,.89-1.14,1.46-2.15,1.72-3.03l.24-.86c.13-.43,.22-.75,.28-.94,.04-.13,.06-.15,.09-.23-.07-.41-.13-.79-.18-1.14-.11-.42-.22-.77-.34-1.06-.12-.29-.25-.52-.38-.67-.19-.23-.43-.39-.73-.48-.29-.09-.66-.14-1.12-.14-.33,0-.63,.03-.91,.08-.27,.06-.52,.12-.76,.2-.23,.18-.46,.34-.7,.48-.24,.15-.46,.3-.67,.48-.41,.5-.83,1-1.24,1.5-.41,.49-.81,.95-1.2,1.37-.45,.73-.82,1.41-1.1,2.01-.28,.6-.5,1.09-.66,1.49-.14,.4-.28,.77-.39,1.11-.12,.35-.21,.65-.26,.91-.02,.36-.05,.71-.11,1.06l-.13,1.02c-.53,.42-.97,.82-1.31,1.21-.33,.37-.6,.75-.81,1.17-1.19,1.01-2.12,1.77-2.79,2.29-.89,.69-1.09,.77-1.13,.77-.15,0-.26-.06-.34-.18-.08-.13-.12-.33-.12-.61,0-.32,.08-.95,.23-1.88,.15-.93,.37-2.16,.66-3.67,.47-1.89,.89-3.53,1.27-4.92,.38-1.38,.72-2.53,1.03-3.43,.09-.34,.16-.65,.22-.91l.07-.6,1.82-.38c.26-.02,.44-.34,.54-.97,.1-.59,.15-1.43,.15-2.51,0-.26-.02-.48-.07-.66-.05-.19-.14-.33-.25-.4-.12-.1-.21-.2-.27-.27-.06-.08-.1-.15-.13-.17,.03-.33,.17-.84,.42-1.51,.25-.68,.37-1.24,.37-1.66,0-.54-.12-.96-.37-1.24-.25-.29-.61-.43-1.06-.43-.85,0-1.63,.85-2.36,2.59-.7,1.66-1.36,2.53-1.92,2.61l-.93-.27-.74,.15c-.23,.05-.46,.09-.65,.15-.18-.06-.45-.1-.8-.14-.33-.03-.72-.05-1.19-.05h-.08c-.23,.05-.49,.11-.72,.16-.35-.07-.74-.13-1.19-.18s-.92-.07-1.43-.07c-.54,0-.94,.33-1.2,.97-.25,.62-.37,1.52-.37,2.68,0,.18,.07,.34,.2,.47,.13,.13,.3,.23,.52,.3,.15,.07,.3,.14,.45,.2,.15,.06,.32,.14,.53,.24,.14,0,.38,0,.71,.03,.33,.02,.58,.03,.72,.03h3.38c.13,0,.33-.03,.57-.1,.29-.08,.44-.09,.51-.09,.1,0,.18,.02,.22,.06,.04,.04,.06,.1,.07,.16-.22,.49-.41,.89-.59,1.21-.18,.32-.34,.58-.49,.78-1.18,2.13-2.39,4.04-3.6,5.68-1.21,1.64-2.46,3.07-3.74,4.25l-.61,.76c-.17,.22-.31,.4-.43,.55l-.06,.22s0-.01-.01-.02c-.51,.62-.97,1.27-1.37,1.96-.41,.69-.74,1.4-.99,2.11-.04,.07-.12,.29-.41,1.38-.22,.8-.55,1.92-1,3.37-.09,.39-.2,.71-.33,.95-.14,.25-.24,.46-.32,.67l.09,.5c-.84,2.2-1.54,3.88-2.07,4.98-.68,1.41-.98,1.62-1.11,1.62-.02,0-.1-.02-.18-.38-.06-.3-.12-.72-.17-1.28-.05-.47-.09-.91-.11-1.34,0-1.13,.06-2.48,.19-4.01,.12-1.52,.31-3.29,.57-5.26,.25-2.08,.53-3.91,.82-5.43,.3-1.52,.61-2.8,.93-3.79,.2-.43,.37-.79,.52-1.08,.15-.28,.29-.48,.42-.63,.11-.26,.2-.49,.26-.7,.06-.2,.12-.37,.17-.49,.34-.7,.63-1.31,.87-1.81,.23-.5,.44-.91,.63-1.25,.77-2.36,1.43-4.46,1.95-6.23,.52-1.79,.93-3.31,1.22-4.51,.3-2.5,.43-3.73,.43-3.88,0-.63-.01-1.15-.04-1.55-.03-.4-.06-.69-.1-.85-.09-.43-.3-.76-.6-.96-.3-.2-.7-.3-1.18-.3-.63,0-1.25,.31-1.84,.93-.58,.61-1.13,1.52-1.64,2.71-1.38,3.39-2.54,6.6-3.44,9.55-.9,2.95-1.54,5.74-1.9,8.31-.09,.54-.21,1.06-.36,1.56-.15,.5-.35,.99-.6,1.45-.13,.25-.33,.61-.62,1.06-.29,.46-.65,1-1.08,1.63l-.42,.55c-.11,.14-.19,.28-.27,.45-.11,.11-.22,.2-.34,.28-.13,.09-.23,.15-.33,.2-.13,.14-.25,.29-.37,.43l-.36,.45c-.16,.14-.31,.26-.46,.34-.14,.08-.28,.12-.43,.12-.52,0-.93-.22-1.25-.66-.32-.44-.48-.95-.46-1.51,0-.83,.02-1.69,.05-2.6-.04-.61-.16-1.07-.36-1.38-.21-.32-.53-.48-.93-.48-.62,0-1.31,.25-2.04,.73-.72,.48-1.51,1.23-2.33,2.2-.16,.11-.3,.2-.43,.27l-.38,.22c-.16,.11-.44,.34-.83,.7l-1.5,1.37c-.52,.5-1,.91-1.42,1.21-.42,.3-.83,.52-1.14,.66l-.19-.15c.52-.74,.95-1.33,1.27-1.78,.32-.45,.54-.73,.66-.85,1.03-.9,1.82-1.65,2.43-2.28,.61-.63,1.01-1.16,1.17-1.53,.42-.31,.75-.58,1.01-.82,.25-.24,.43-.4,.52-.5,.13-.18,.28-.38,.44-.6,.56-.42,1.06-.84,1.47-1.27,.42-.43,.77-.84,1.05-1.2,.52-.39,1.01-.75,1.46-1.08,.3-.21,.52-.46,.66-.76,.14-.3,.21-.65,.21-1.03s-.12-.68-.36-.9c-.24-.21-.6-.32-1.09-.32-.86,0-1.92,.4-3.16,1.17-1.23,.77-2.69,1.95-4.32,3.5-.36,.34-.69,.61-.99,.82-.3,.21-.55,.36-.76,.48-.42,.36-.76,.68-1.03,.95-.27,.27-.48,.5-.6,.66-.27,.13-.52,.28-.73,.44-.21,.17-.39,.38-.52,.62-.16,.28-.3,.5-.43,.65-.12,.15-.23,.27-.31,.35l-2.49,1.65c-.18,.31-.34,.56-.47,.77-.12,.19-.22,.32-.3,.46,0,0,0,0,0,0,0,0,0,0,0,0-.01-.02-.02-.05-.04-.07-.28,.23-.52,.39-.72,.49-.21,.1-.78,.62-1.75,1.57-.37,.36-.72,.64-1.04,.84-.31,.2-.58,.3-.8,.3-.09,0-.16-.02-.21-.06-.05-.04-.07-.09-.07-.16,0-.67,.28-1.69,.83-3.01,.56-1.35,.84-2.4,.84-3.13,0-1.37-.18-2.56-.55-3.52-.37-.96-.92-1.73-1.65-2.28-.09-.07-.24-.18-.43-.29-.4-.4-.81-.78-1.23-1.14-.44-.37-.98-.56-1.6-.56-.59,0-1.36,.31-2.3,.93-.93,.61-1.53,1.16-1.78,1.68l.28,1.25c-.37,.85-.98,1.79-1.81,2.78-.83,.99-1.91,2.04-3.23,3.13-.27,.39-.54,.77-.82,1.2,0,0,0-.01,0-.02-.41,.46-.84,.87-1.29,1.22-.44,.35-.94,.63-1.49,.86-.22,.22-.4,.42-.53,.6-.14,.18-.25,.33-.28,.43-.32,0-.66,.08-1.03,.24-.37,.16-.74,.42-1.08,.77-.42,.15-.77,.28-1.07,.41-.3,.13-.54,.26-.7,.37-1.03,.2-1.83,.34-2.42,.43-.58,.09-.91,.13-1,.13-.98,0-1.91-.21-2.76-.63-.86-.42-1.69-1.05-2.46-1.87-.25-.18-.51-.38-.78-.62-.12-.08-.23-.2-.32-.33-.09-.14-.16-.26-.19-.37-.09-.53-.22-1-.38-1.42-.16-.42-.35-.79-.55-1.09-.34-.54-.59-.95-.76-1.23-.2-.35-.23-.47-.23-.51l.27-2.49c-.13-.45-.27-.95-.43-1.45,.2-.87,.35-1.62,.46-2.26l.27-1.61c.18-1.41,.52-2.84,1.02-4.24,.5-1.4,1.17-2.82,1.99-4.22,1-1.6,2.06-2.88,3.16-3.79,1.09-.91,2.25-1.46,3.44-1.66l.77-.19c.3-.07,.64-.18,.97-.33,.47,.15,.95,.27,1.43,.37,.48,.1,.95,.2,1.41,.31,.47,.19,.83,.47,1.06,.84,.23,.36,.35,.79,.35,1.28,0,.34-.12,.74-.35,1.16-.24,.43-.61,.89-1.14,1.38-.15,.19-.34,.64-.58,1.39-.23,.72-.5,1.73-.81,2.99-.29,1.16-.51,2.1-.65,2.84-.14,.74-.22,1.24-.22,1.51l.16,2.08c0,.1-.03,.29-.09,.55-.07,.28-.1,.48-.1,.61,0,.12,.05,.29,.29,.38,.17,.06,.43,.1,.84,.1h.05c.83-.22,1.6-.41,2.32-.59,.21-.06,.44-.36,.72-.95,.27-.55,.6-1.36,.98-2.43,.36-.97,.65-1.79,.88-2.45,.23-.67,.35-1.14,.37-1.43,.22-1.08,.39-2.03,.53-2.85,.13-.82,.26-1.5,.36-2.04,.04-.18,.06-.52,.08-1.03,.02-.49,.03-1.16,.03-1.99,0-1.77-.17-3.14-.52-4.08-.35-.96-.91-1.53-1.65-1.7l-.83-.15c-.35-.26-.82-.45-1.41-.57-.58-.12-1.3-.18-2.12-.18-.39,0-1.19,.18-2.46,.54-1.27,.37-1.98,.64-2.19,.83-.18,.15-.34,.28-.48,.41-.13,.12-.24,.21-.32,.26l-.92,.46c-.25,.13-.46,.22-.67,.31-.61,.58-1.14,1.05-1.58,1.42-.44,.36-.81,.64-1.13,.83-.33,.34-.61,.66-.84,.95-.23,.29-.43,.52-.59,.7-.74,.74-1.4,1.46-1.97,2.14-.57,.68-1.04,1.36-1.4,2.02-.42,.85-.83,1.72-1.24,2.62-.41,.9-.83,1.79-1.24,2.68-.11,.24-.2,.45-.26,.64-.07,.19-.1,.37-.1,.53l.08,.56c-.13,.45-.26,.85-.4,1.21-.14,.36-.28,.66-.41,.94l-.38,3.08c-.09,.75-.14,1.19-.14,1.33s.04,.36,.13,.64c.08,.27,.19,.61,.34,.99l-.3,1.23c-.02,.15,.03,.47,.16,.98,.13,.49,.32,1.13,.57,1.92l.73,2.33c.15,.4,.39,.85,.72,1.34,.33,.49,.78,1.01,1.32,1.55,.56,.58,1.09,1.04,1.57,1.36,.49,.33,.91,.51,1.26,.53l.74,.08,.37,.35c.21,.02,.48,.07,.8,.16l1.19,.32c.38,.11,.74,.2,1.07,.28,.34,.08,.65,.13,.92,.13,.86,0,1.72-.08,2.56-.23,.83-.15,1.63-.4,2.37-.75,.51-.2,1.12-.49,1.89-.91,.75-.41,1.61-.89,2.59-1.45,1.08-.65,2.03-1.24,2.83-1.79,.78-.53,1.43-.99,2-1.46,0,0,0,0,0,.01,.01-.01,.01-.02,.03-.04,0,0,.01-.01,.02-.02,0,0,0,0,0-.01,.14-.16,.25-.31,.32-.44l.14-.29c.59-.39,1.08-.77,1.44-1.12,.36-.34,.63-.66,.77-.91,.28-.15,.62-.43,1.05-.85,.42-.42,.89-.96,1.41-1.6,.48-.59,.96-1.08,1.42-1.48,.46-.39,.9-.7,1.24-.9,.57,.07,1,.35,1.28,.83,.29,.49,.44,1.21,.44,2.15,0,.76-.1,1.64-.31,2.61-.21,.96-.51,2.03-.9,3.15-.09,.25-.2,.49-.32,.73-.13,.24-.24,.49-.35,.72-.15,.31-.26,.6-.34,.86-.08,.27-.13,.51-.13,.71,0,.53,.2,.92,.61,1.16,.39,.23,.97,.35,1.74,.35h.02c.47-.15,.9-.34,1.26-.58,1.37-.83,2.55-1.56,3.53-2.2,.98-.64,1.78-1.19,2.4-1.64,.29-.25,.54-.48,.75-.68,.16-.15,.3-.29,.44-.45,0,.12-.01,.25-.02,.39-.42,.42-.74,.86-.95,1.31-.21,.45-.32,.93-.32,1.43,0,.9,.22,1.58,.64,2.02,.43,.44,1.09,.66,1.98,.66,.14,0,.34-.06,.63-.18,.27-.12,.6-.28,.98-.47,.6-.33,1.13-.64,1.61-.95,.48-.31,.91-.62,1.27-.93,.18-.18,.49-.48,.92-.89,.43-.41,.97-.95,1.59-1.59,.47-.38,.88-.7,1.23-.97l.89-.69c.14-.16,.27-.29,.37-.39,.1-.1,.19-.19,.18-.28,0,0,0,0,0,0,.14,.17,.22,.33,.27,.49,.04,.16,.07,.33,.07,.49,.11,1.36,.49,2.4,1.13,3.07,.64,.68,1.57,1.02,2.76,1.02,.51,0,1.03-.11,1.54-.32,.51-.21,1.04-.53,1.59-.94,.45-.36,.88-.75,1.29-1.15,.37-.37,.75-.74,1.15-1.15l.65,.53c-.2,1.23-.37,2.32-.5,3.27-.14,.96-.23,1.75-.28,2.4l.32,1.63c0,.21-.04,.52-.12,.93-.08,.42-.12,.73-.12,.93v4.11c0,.47,.03,.9,.08,1.3,.06,.39,.14,.77,.24,1.12,.07,.56,.14,1.12,.2,1.69,.06,.57,.14,1.14,.23,1.73,.18,.7,.52,1.23,.99,1.58,.47,.35,1.11,.53,1.9,.53,.26,0,.52-.07,.77-.21,.24-.14,.47-.33,.7-.58,.14-.22,.3-.44,.47-.67,.17-.24,.32-.47,.45-.7,.78-1.12,1.61-2.84,2.47-5.11,.86-2.27,1.75-5.16,2.65-8.59,.13-.49,.25-1,.37-1.53,.12-.53,.26-1.05,.42-1.55,.14-.59,.33-1.13,.56-1.62,.22-.46,.45-.85,.69-1.23h0c.18-.26,.34-.48,.48-.66,.15-.18,.25-.32,.29-.4,.96-.9,1.89-1.79,2.81-2.67,.6-.52,1.12-1.03,1.55-1.51,.43-.48,.79-.94,1.04-1.35l.2-.16c.08,.04,.17,.1,.18,.14-.22,.49-.42,.95-.63,1.4-.13,.7-.24,1.41-.35,2.11l-.19,1.08c-.06,.31-.08,.56-.08,.72-.04,.1-.09,.23-.16,.38-.16,.47-.28,1.1-.36,1.87-.07,.76-.11,1.68-.11,2.72,0,.97,.2,1.71,.6,2.19,.4,.49,1.02,.73,1.83,.73,.37,0,.77-.11,1.2-.32,.42-.21,.86-.56,1.29-1.03,.33-.34,.65-.7,.96-1.06,.32-.36,.64-.72,.96-1.08,.32-.32,.62-.61,.89-.85,.27-.24,.5-.47,.67-.66,.45-.31,.84-.6,1.17-.87,.26-.22,.46-.41,.64-.63v.03s.11-.12,.11-.12c.21-.26,.41-.46,.58-.59,.16-.12,.31-.19,.44-.19,.15,0,.3,.08,.42,.25,.14,.18,.29,.47,.45,.86,.2,.49,.39,.91,.57,1.26,.18,.36,.37,.63,.55,.82,.35,.39,.79,.68,1.31,.89,.52,.2,1.13,.3,1.8,.3,.5,0,.95-.04,1.33-.12,.38-.08,.72-.22,.97-.39,.71,0,1.51-.26,2.35-.78,.81-.49,1.71-1.23,2.71-2.26l.13,.34c0,.35-.15,.9-.45,1.63-.31,.75-.47,1.35-.47,1.77,0,.92,.23,1.61,.67,2.04,.45,.44,1.14,.66,2.06,.66,.52,0,1.13-.22,1.83-.65,.69-.43,1.45-1.1,2.26-2,.6-.65,1.19-1.31,1.79-1.99,.59-.68,1.18-1.35,1.76-2.02,.25-.36,.45-.68,.6-.94,.15-.27,.25-.49,.29-.66,.27-.41,.53-.75,.79-1.02,.25-.26,.49-.47,.72-.63,.06-.08,.14-.2,.16-.35,.01-.01,.02-.02,.03-.04,.29,.38,.5,.74,.62,1.07,.05,.18,.11,.38,.16,.59l.19,.76c.35,1.42,.95,2.49,1.81,3.21s1.98,1.07,3.35,1.07c.62,0,1.15-.08,1.58-.23,.44-.16,.81-.42,1.1-.77,.49-.57,.88-1.02,1.17-1.33,.11-.12,.44-.47,.6-.63-.13-.36-.29-.75-.48-1.17l-.33-.72-.29-.45s-.04-.08-.05-.12c0,0,0,0-.01,.01l-.04-.07c-.36,.39-.71,.68-1.05,.86-.34,.18-.68,.27-1,.27-.29,0-.57-.07-.83-.22-.26-.14-.48-.38-.68-.72-.32-.5-.59-.98-.79-1.41-.21-.44-.36-.81-.44-1.11-.09-.28-.14-.66-.16-1.14-.02-.49-.03-1.07-.03-1.73l1.73-6.25-.09-.54c.16-.25,.3-.48,.42-.68,.11-.19,.21-.33,.29-.46,.01-.06,.07-.22,.28-.66l.69-1.46c.25-.58,.44-1.02,.57-1.34,.13-.33,.2-.54,.2-.66v-.47c0-.15,.02-.27,.04-.34l.39-.52c.04-.23,.07-.43,.11-.61,.04-.17,.06-.33,.03-.41,.18-.2,.34-.43,.46-.67,.12-.24,.19-.5,.21-.76Zm-9.4,13.35c0,.61-.27,1.44-.8,2.47-.54,1.02-1.37,2.29-2.48,3.76-1.07,1.38-2.01,2.47-2.79,3.25-.77,.77-1.43,1.24-1.88,1.42-.12-.11-.19-.21-.2-.26,.22-.54,.42-1,.62-1.37l1.46-2.42c.39-.65,.71-1.12,.94-1.38,.81-.91,1.44-1.69,1.9-2.32,.46-.63,.75-1.09,.85-1.35,.54-.43,1.01-.83,1.41-1.19,.36-.32,.66-.61,.92-.86,.04,.11,.06,.2,.06,.26Zm-18.17-.51c0,.24-.05,.49-.16,.73-.1,.24-.26,.49-.47,.74l-.55,.61c-.19,.2-.38,.4-.59,.59l-.35,.58c-.11,.18-.25,.27-.42,.27s-.21-.03-.23-.05c-.02-.02-.04-.07-.04-.17,0-.47,.33-1.22,.99-2.24,.65-1.01,1.16-1.52,1.53-1.52,.1,0,.17,.04,.22,.11,.06,.09,.08,.2,.08,.35Zm-27.61-5.33l-.17-.16c0-.17,.04-.41,.12-.7,.08-.29,.19-.64,.33-1.03,.18-.47,.33-.86,.43-1.16,.11-.31,.18-.56,.19-.73,.09-.25,.16-.45,.2-.58,.05-.13,.11-.15,.16-.15,.1,0,.16,.03,.2,.1,.03,.05,.07,.17,.07,.42,0,.17-.04,.39-.13,.65-.09,.27-.22,.59-.4,.96-.22,.42-.39,.79-.52,1.12-.13,.33-.2,.64-.2,.86l-.27,.38-.02,.02Z"></path>
    <path class="cls-2" d="M269.58,529.54c0-.29-.08-.52-.24-.69-.16-.17-.4-.25-.73-.25s-.61,.12-.86,.36c-.24,.24-.43,.59-.56,1.05-.09,.33-.17,.67-.24,1.02l-.22,1.08,.22,.76c-.18,.41-.37,.83-.58,1.25-.21,.43-.38,.85-.53,1.26-.23,.5-.42,.99-.56,1.44-.13,.45-.24,.87-.3,1.23-1.1,2.21-2.02,3.89-2.74,4.98-.88,1.35-1.34,1.63-1.51,1.65-.23-.25-.37-.48-.44-.7-.05-.21-.08-.39-.09-.55,0-.16,0-.29,.01-.4,.13-1.84,.23-3.19,.31-4.06,.06-.68,.1-1.05,.12-1.11l-.05-.15-.11-.26c-.05-.12-.09-.26-.13-.39,.14-.68,.28-1.35,.41-2.02,0-.22,.02-.41,.06-.54,.04-.13,.09-.21,.14-.25,.21-.13,.37-.29,.48-.49,.11-.19,.17-.41,.17-.66,0-.61-.11-1.08-.32-1.39-.22-.33-.58-.49-1.08-.49-1.18,0-2.65,2.01-4.51,6.13-2.36,5.25-3.03,6.04-3.18,6.05l-.26-.2s-.07-.15-.15-.76c-.05-.46-.12-1.1-.19-1.93l-.14-1.92c-.04-.5-.05-.88-.05-1.13,0-.58,.05-1.41,.13-2.47,.09-1.09,.14-1.87,.14-2.37,0-.29-.08-.51-.23-.65-.15-.14-.36-.21-.63-.21-.72,0-1.43,.34-2.1,1.02-.66,.67-1.34,1.72-2,3.13-.2,.41-.45,.87-.77,1.37-.31,.5-.68,1.03-1.09,1.59-.48,.69-.92,1.26-1.31,1.68-.38,.41-.72,.7-1,.86-.45,.27-.82,.51-1.1,.71-.28,.2-.46,.34-.55,.5,.23,.49,.44,.93,.62,1.34,.14,.31,.28,.61,.45,.91,.02,.07,.06,.14,.08,.21,0,0,.02-.02,.02-.02,.02,.02,.02,.05,.04,.07,.23-.3,.63-.63,1.17-1,.56-.37,.97-.7,1.21-.97,.31-.36,.58-.68,.82-.95l.61-.68c.12-.14,.26-.27,.4-.4,.11-.1,.22-.2,.3-.31,.02-.02,.04-.03,.07-.05l1.27,7.68c.39,2.39,.57,2.8,.67,2.89l.48,.5c.15,.08,.28,.12,.39,.13,.1,0,.21,.01,.32,.01,.39,0,.74-.07,1.05-.2,.31-.13,.57-.33,.81-.61,.14-.32,.3-.64,.47-.96,.17-.32,.33-.64,.47-.96l.89-1.7c.15-.26,.25-.51,.32-.75,.06-.24,.11-.45,.11-.6,.43-.74,.82-1.42,1.17-2.06,.28-.58,.52-1.01,.71-1.26,.21-.28,.31-.33,.31-.37l.11,.16c0,.15-.04,.38-.13,.68-.09,.31-.14,.58-.14,.81,0,2.09,.18,3.68,.53,4.73,.36,1.07,.9,1.62,1.6,1.62,.54,0,1.07-.15,1.58-.46,.51-.3,1.02-.75,1.51-1.33,.07-.09,.28-.38,.63-.88,.35-.5,.83-1.21,1.42-2.13,.92-1.46,1.61-2.79,2.05-3.95,.59-.92,1.14-1.9,1.61-2.93,.48-1.03,.91-2.16,1.28-3.36,.34-1.06,.61-2.1,.79-3.09,.18-.99,.27-1.95,.27-2.88Z"></path>
    <path class="cls-2" d="M275.18,528.62c.27,0,.54,.01,.82,.04,.28,.03,.94,.1,.94,.1,.12,0,.31-.05,.56-.16,.28-.12,.64-.33,1.05-.61,.4-.24,.75-.51,1.03-.81s.51-.66,.68-1.07c.07-.18,.18-.48,.31-.9,.13-.42,.29-.95,.47-1.6l.27-1.29c0-.36-.11-.65-.34-.84-.22-.19-.57-.29-1.04-.29-.38,0-.73,.04-1.02,.12-.29,.08-.54,.19-.74,.33-.42,.49-.78,.92-1.03,1.27-.53,.06-1.12,.49-1.8,1.34-.68,.84-1,1.52-1,2.09,0,.62,.07,1.12,.21,1.49,.14,.38,.34,.64,.63,.78Z"></path>
    <path class="cls-2" d="M318.86,513.05h-.01c-.12,.03-.24,.05-.29,.09-.11-.19-.3-.39-.61-.63-.28,0-.66,.13-1.12,.38-.45,.24-1,.63-1.61,1.16-.67,.58-1.35,1.22-1.99,1.88-.65,.67-1.31,1.41-1.97,2.18-.36,.47-.82,1.09-1.38,1.87-.56,.77-1.21,1.7-1.95,2.79-.29,.52-.54,.98-.77,1.36-.23,.39-.4,.73-.53,1.02-.13,.32-.25,.6-.38,.84-.12,.24-.25,.44-.37,.6-.4,.59-.76,1.27-1.09,2.01-.33,.74-.6,1.57-.81,2.47-.22,.68-.42,1.3-.61,1.85-.19,.55-.36,1-.53,1.37-.34,1.21-.62,2.27-.84,3.19-.22,.92-.4,1.68-.57,2.31-.02,.18-.11,.4-.28,.64-.18,.25-.41,.51-.7,.78-.13,.14-.29,.31-.51,.51-.2,.18-.49,.44-.86,.82h0c-1.21,1.01-2.15,1.79-2.82,2.31-.89,.69-1.09,.77-1.13,.77-.15,0-.26-.06-.34-.18-.08-.13-.12-.34-.12-.61,0-.32,.08-.95,.23-1.88,.15-.93,.37-2.16,.66-3.67,.47-1.89,.89-3.53,1.27-4.92,.38-1.38,.72-2.54,1.03-3.43,.09-.34,.16-.65,.22-.91l.03-.14,.05-.46,1.82-.38c.26-.02,.43-.34,.54-.97,.1-.59,.15-1.44,.15-2.51,0-.26-.02-.48-.07-.66-.05-.19-.14-.33-.25-.4-.12-.1-.21-.2-.27-.27-.06-.08-.11-.15-.13-.17,.03-.33,.17-.84,.42-1.51,.24-.68,.37-1.24,.37-1.66,0-.54-.13-.96-.37-1.24-.25-.29-.61-.43-1.06-.43-.86,0-1.63,.85-2.36,2.59-.7,1.66-1.35,2.53-1.92,2.61l-.93-.27-.75,.15c-.22,.05-.46,.09-.65,.15-.18-.06-.45-.1-.8-.14-.33-.03-.72-.05-1.19-.05h-.08c-.24,.05-.49,.11-.72,.16-.35-.07-.74-.13-1.19-.18-.44-.04-.92-.07-1.43-.07-.54,0-.94,.33-1.2,.97-.24,.62-.37,1.52-.37,2.68,0,.18,.07,.34,.2,.47,.13,.13,.3,.23,.52,.3,.15,.07,.3,.14,.45,.2,.15,.06,.32,.14,.53,.24,.14,0,.38,0,.71,.03,.33,.02,.58,.03,.72,.03h3.38c.13,0,.33-.03,.57-.1,.23-.06,.4-.09,.51-.09s.18,.02,.22,.06c.04,.04,.06,.1,.06,.16-.22,.49-.41,.89-.59,1.21-.18,.32-.34,.58-.49,.78-1.18,2.13-2.39,4.04-3.6,5.68-1.21,1.64-2.46,3.07-3.74,4.25l-.61,.76c-.17,.22-.31,.4-.43,.55l-.06,.2h0s-.88,.7-.88,.7c-.3,.24-.58,.48-.85,.72-.35,.28-.7,.48-1.03,.6-.33,.11-.66,.17-.98,.17-.26,0-.47-.04-.64-.11-.16-.08-.29-.19-.38-.37-.05-.06-.16-.29-.39-1.23-.18-.73-.33-1.28-.46-1.63-.07-.58-.16-1.15-.27-1.72-.11-.57-.23-1.13-.35-1.69-.15-.65-.45-1.14-.9-1.46-.44-.32-.99-.49-1.64-.49-.25,0-.49,.07-.74,.2-.24,.13-.46,.35-.65,.65-.46,.66-1.31,1.53-2.53,2.59-1.22,1.07-2.09,1.95-2.59,2.64l-.06,.24-.15,.3c.06,.05,.12,.11,.17,.19,.05,.09,.1,.18,.13,.28,.14,.44,.29,.82,.42,1.14,.11,.27,.22,.5,.37,.71,.01,.03,.03,.07,.04,.09,0,0,0,0,.01-.01,.02,.02,.03,.05,.04,.07,.7-.77,1.3-1.35,1.78-1.74,.47-.37,.84-.56,1.11-.56,.05,0,.15,.04,.34,.28,.16,.2,.35,.51,.56,.93,.18,.27,.34,.51,.49,.71,.14,.19,.25,.36,.31,.49,.61,1.76,1.14,2.81,1.65,3.2,.51,.39,1.57,.58,3.24,.58,.28,0,.69-.13,1.22-.4,.52-.26,1.16-.67,1.9-1.21,.67-.49,1.24-.92,1.72-1.29,.47-.36,.83-.68,1.12-1.03v.02c.19-.27,.35-.49,.5-.67,.15-.18,.25-.32,.29-.4,.96-.9,1.89-1.79,2.81-2.67,.59-.52,1.12-1.03,1.55-1.51,.43-.48,.79-.94,1.04-1.35l.2-.16c.08,.04,.17,.1,.18,.14-.22,.49-.42,.95-.63,1.4-.13,.7-.24,1.41-.35,2.11l-.19,1.08c-.06,.31-.08,.56-.08,.72-.03,.1-.09,.23-.16,.38-.16,.48-.28,1.11-.36,1.87-.07,.77-.11,1.68-.11,2.72,0,.97,.2,1.71,.6,2.19,.4,.49,1.02,.73,1.83,.73,.37,0,.77-.11,1.2-.32,.42-.21,.86-.56,1.29-1.03,.33-.34,.65-.7,.96-1.06,.31-.36,.63-.72,.96-1.08,.32-.32,.62-.61,.89-.85,.27-.24,.5-.47,.67-.66,.45-.31,.84-.6,1.17-.87,.3-.25,.53-.47,.71-.72,0,0,0,.01,0,.02,.17-.11,.3-.21,.39-.31s.17-.18,.16-.22c.08,0,.15,.02,.17,.04,.03,.03,.05,.08,.05,.13-.07,.27-.14,.52-.19,.77l-.05,.35c-.02,.13-.03,.28-.03,.45,0,.53,.06,1.17,.18,1.92,.12,.75,.28,1.63,.5,2.64,.08,.33,.33,.58,.74,.74,.39,.16,.95,.24,1.64,.24,.34,0,.75-.19,1.21-.56,.45-.36,.99-.91,1.58-1.63,.51-.65,.94-1.25,1.3-1.79,.36-.54,.64-1.02,.84-1.43,.31-.41,.61-.81,.93-1.19,.32-.38,.62-.75,.85-1.08h.16s.24,.15,1.02,1.49c.62,1.06,1.5,1.59,2.62,1.59,.72,0,1.36-.04,1.9-.12,.56-.08,.97-.21,1.27-.38,.43-.27,.87-.54,1.31-.81s.88-.55,1.34-.93c-.2-.47-.39-.91-.58-1.33-.19-.41-.36-.8-.59-1.21-.75,.16-1.41,.29-1.96,.38-.45,0-.84-.12-1.16-.36-.32-.24-.6-.63-.82-1.14-.02-.09-.1-.39-.24-.89-.14-.49-.33-1.2-.57-2.12-.13-.51-.3-.92-.5-1.21-.22-.31-.45-.47-.71-.47-.1,0-.23,.03-.38,.09l-.49,.19-.95,.41c-.29,.13-.63,.52-1.06,1.18-.41,.64-.89,1.56-1.41,2.75-.59,1.3-1.12,2.38-1.58,3.21-.45,.82-.85,1.38-1.2,1.69-.18,.21-.35,.4-.52,.56-.17,.17-.31,.31-.34,.41-.06,0-.14-.02-.18-.17-.04-.15-.07-.37-.07-.67,0-.76,.09-1.68,.26-2.73,.17-1.05,.43-2.26,.75-3.57,.9-1.14,1.69-2.12,2.38-2.95s1.25-1.52,1.68-2.08c.87-1.1,1.57-2.02,2.07-2.74,.51-.72,.8-1.21,.9-1.48,.36-.4,.67-.74,.93-1.04,.27-.31,.46-.59,.56-.83,.43-.67,.79-1.26,1.07-1.78,.28-.51,.51-.94,.69-1.28,.38-.61,.7-1.17,.98-1.68,.27-.5,.49-.91,.68-1.23,.31-.83,.59-1.55,.86-2.17,.27-.62,.52-1.14,.76-1.59,.06-.15,.1-.31,.14-.5,.04-.18,.06-.4,.08-.65,.03-.2,.08-.39,.13-.59,.05-.18,.13-.34,.27-.49,.09-.38,.16-.7,.22-.96,.05-.26,.08-.48,.08-.65,0-.75-.11-1.33-.33-1.72-.23-.4-.59-.6-1.11-.6Zm-11.34,20.73l-.12-.05,.36-.92c.21-.52,.47-1.26,.8-2.22,.34-.88,.69-1.83,1.06-2.87,0-.22,.05-.44,.14-.64,.09-.21,.25-.42,.47-.64l1.48-2.26c.5-.77,1.02-1.54,1.54-2.31,.91-1.38,1.67-2.44,2.27-3.14,.76-.9,1.03-1.04,1.13-1.04,.11,0,.19,.03,.22,.08,.04,.07,.06,.16,.06,.27,0,.2-.11,.58-.33,1.11-.22,.54-.56,1.26-1.01,2.16-.79,1.65-1.53,3.13-2.22,4.39-.68,1.27-1.36,2.32-2,3.14-.65,.88-1.23,1.65-1.74,2.31-.51,.66-.95,1.19-1.31,1.61-.25,.35-.55,.69-.8,1.01,0,0,0,0,0,0Z"></path>
    <path class="cls-2" d="M388.49,531.54c0-.21-.04-.38-.12-.49-.09-.12-.24-.18-.44-.18-.66,0-1.18,.27-1.56,.8-.38,.52-.65,1.3-.81,2.32-.07,.57-.34,1.43-.81,2.56-.47,1.14-1.16,2.61-2.05,4.39-.89,1.82-1.67,3.21-2.29,4.11-.76,1.1-1.18,1.33-1.4,1.33-.13,0-.37-.2-.57-1.52-.16-1.04-.24-2.65-.24-4.77,.05-.2,.1-.39,.13-.61-.05-.16-.1-.3-.13-.43-.04-.13-.08-.24-.11-.28,.11-.42,.18-.97,.21-1.65,.03-.68,.04-1.52,.04-2.53,0-.7-.06-1.21-.18-1.55-.13-.37-.33-.55-.6-.55-.13,0-.41,.08-1.4,.76-.97,.67-1.14,.83-1.19,.91-.36,.83-.69,1.56-.99,2.19-.3,.63-.55,1.15-.77,1.57-.15,.34-.38,.73-.71,1.16-.33,.43-.75,.91-1.25,1.41-.48,.52-.86,.97-1.13,1.32-.24,.33-.39,.56-.47,.76-.19,.16-.36,.29-.5,.37-.14,.08-.28,.12-.41,.12-.12,0-.22-.04-.29-.12-.08-.09-.16-.25-.25-.39,.19-.17,.38-.43,.6-.8,.21-.36,.41-.82,.59-1.37,.16-.49,.28-.95,.35-1.36,.07-.43,.11-.78,.11-1.09,0-1.63-.34-2.87-1-3.69-.67-.82-1.69-1.23-3.02-1.23-.14,0-.43,.07-.89,.22-.45,.15-1.08,.37-1.78,.71l-.16-.17c.2-.42,.39-.83,.58-1.29-.02-.21-.15-.37-.38-.48-.22-.1-.53-.16-.94-.16-.37,0-.72,.08-1.03,.22-.31,.15-.61,.35-.91,.61-.25,.25-.5,.52-.75,.79-.24,.27-.5,.54-.77,.81-.22,.2-.45,.4-.7,.61-.25,.21-.51,.43-.76,.66-.29,.26-.55,.52-.75,.78-.21,.26-.36,.5-.44,.68-.78,.69-1.43,1.27-1.95,1.74-.52,.47-.91,.87-1.16,1.17l-2.1,1.45c-.18,.25-.34,.48-.48,.69-.12,.18-.23,.33-.35,.51,0,0,0-.01-.01-.02-.12,.16-.27,.31-.45,.46-.18,.15-.38,.3-.64,.47-.1,.21-.26,.44-.44,.67-.15,.05-.29,.11-.42,.16-.13,.05-.27,.09-.42,.11-1.25,.48-2.47,.86-3.62,1.1-1.15,.25-2.31,.38-3.43,.38-.22,0-.38-.14-.49-.44-.12-.31-.18-.77-.18-1.35,0-.64,.1-1.62,.31-2.89,.21-1.29,.52-2.93,.93-4.88,.09-.49,.16-.91,.2-1.28l.12-.93c.03-.09,.11-.34,.23-.76,.12-.42,.27-1,.47-1.76,.18-.56,.32-1.05,.41-1.45,.09-.41,.14-.75,.14-1,0-.59,.2-1.45,.58-2.58,.39-1.15,.59-2.12,.59-2.88,0-.23,.04-.63,.12-1.22l.3-2.07c.18-.31,.33-.57,.44-.81,.05-.31,.1-.64,.14-1s.06-.76,.08-1.18l.15-.65c.06-.27,.13-.6,.2-.97,.11-.36,.18-.69,.21-.97,.03-.28,.04-.53,.04-.75,0-.7-.12-1.23-.35-1.57-.24-.35-.62-.53-1.13-.53-.1,0-.27,.03-.53,.1-.26,.06-.55,.16-.88,.29-.4,.18-.74,.39-1.02,.62-.28,.23-.49,.5-.64,.8l-.41,1.01c-.13,.31-.27,.65-.43,1.01-.32,.74-.61,1.4-.84,1.97-.24,.58-.41,1.07-.52,1.48-.09,.57-.2,1.17-.34,1.78-.13,.61-.27,1.22-.39,1.81-.13,.5-.25,1.02-.38,1.55-.13,.53-.26,1.06-.4,1.58-.18,.65-.31,1.25-.38,1.79-.07,.54-.11,1.04-.11,1.47,0,.33,.14,.59,.43,.76,.24,.14,.35,.36,.35,.68,0,.69-.18,1.95-.53,3.73-.36,1.82-.53,2.95-.53,3.46,0,.15,.02,.34,.06,.57,.03,.22,.05,.39,.05,.52,0,.57-.23,1.73-.67,3.44-.45,1.73-.68,3.01-.68,3.81,0,1.14,.05,2.01,.15,2.61,.1,.63,.27,1,.51,1.14l.7,.4c.14,.09,.29,.19,.44,.29,.15,.11,.31,.22,.48,.33,.13,.08,.3,.13,.49,.16,.18,.03,.41,.04,.69,.04,.33,0,.68-.01,1.07-.04,.39-.03,.79-.1,1.18-.2l1.75-.23c.61-.08,1.18-.25,1.71-.51,.47-.23,.99-.47,1.56-.72,.58-.24,1.19-.49,1.83-.74,.45-.17,.86-.37,1.21-.61,.35-.24,.64-.53,.86-.86,.24-.38,.45-.75,.65-1.11,.2-.36,.41-.7,.66-1.07,0,0,0,0,0-.01,.14-.16,.25-.31,.32-.44,.07-.14,.13-.24,.17-.3l1.46-1.16c.46-.36,.57-.39,.6-.39,.12,0,.22,.03,.28,.1,.07,.07,.1,.15,.1,.26,0,.12-.1,.53-.29,1.24-.2,.71-.3,1.3-.3,1.74,0,1.08,.43,2.07,1.26,2.95,.84,.88,1.8,1.32,2.84,1.32,.17,0,.39-.04,.66-.11,.26-.07,.43-.1,.51-.1,.32,0,.66-.06,1.04-.18,.37-.12,.79-.29,1.23-.5,.78-.33,1.5-.75,2.14-1.24,.58-.45,1.08-.95,1.41-1.49,.04-.05,.09-.09,.13-.14,.17,.36,.39,.64,.66,.84,.28,.21,.64,.31,1.07,.31,.37,0,.75-.08,1.12-.24,.38-.16,.78-.41,1.19-.75,.35-.25,.67-.52,.98-.79l.26-.23,.65-.64s0,.02,.02,.03c.99-1.08,1.76-1.9,2.3-2.46,.66-.68,.9-.87,.9-.91l.24,.07-.19,.68c.05,.11,.08,.35,.09,.7,0,.36,.01,.83,.01,1.41,.04,.44,.1,.84,.19,1.19,.09,.36,.18,.64,.27,.83-.02,.2-.05,.43-.11,.71,0,1.49,.26,2.62,.77,3.37,.52,.76,1.29,1.14,2.28,1.14,.34,0,.64-.07,.89-.21,.25-.14,.48-.34,.68-.6,.18-.21,.37-.43,.57-.65,.2-.22,.39-.44,.56-.67,.86-.77,1.51-1.47,1.93-2.08,.42-.61,.63-1.15,.61-1.55,.22-.24,.72-1.06,1.51-2.5,.79-1.44,1.2-2.27,1.24-2.51,.09-.46,.22-.94,.37-1.41,.47-.74,.82-1.43,1.05-2.04,.23-.62,.34-1.18,.33-1.64,.4-.74,.7-1.5,.89-2.25,.19-.75,.29-1.5,.29-2.22Zm-30.04,12.56c.09-.39,.23-.87,.43-1.43,.2-.62,.39-1.1,.59-1.43,.18-.31,.36-.47,.52-.49,.29-.06,.56-.14,.79-.26,.23-.12,.45-.29,.66-.53,.33-.49,.61-.94,.87-1.35,.16-.24,.32-.45,.49-.62,.19-.19,.29-.25,.34-.26,.57,.07,1,.14,1.3,.2,.37,.08,.51,.13,.58,.17,.13,.06,.26,.25,.4,.54,.14,.31,.3,.74,.46,1.23l-.49,1.55c-.09,.36-.18,.66-.27,.9-.08,.23-.2,.39-.34,.5l-.82,.98c-.61,.91-1.26,1.6-1.94,2.05-.68,.45-1.43,.68-2.24,.68-.5,0-.87-.12-1.11-.36-.24-.23-.36-.6-.36-1.08,0-.27,.04-.6,.13-.98Z"></path>
    <path class="cls-2" d="M401.17,542.72s-.03-.08-.05-.12c0,0,0,0-.01,0-.02-.02-.02-.04-.04-.07-.19,.16-.39,.29-.58,.38s-.35,.18-.44,.23c-.44,.25-.96,.47-1.53,.64-.57,.18-1.21,.29-1.88,.35-.43-.09-.8-.19-1.11-.29-.3-.1-.53-.21-.68-.32-.24-.14-.42-.34-.55-.62-.13-.27-.2-.6-.2-.97,0-.2,.04-.4,.13-.58,.09-.18,.19-.33,.31-.45,1.49-1.45,2.69-2.77,3.58-3.9,.88-1.14,1.46-2.16,1.72-3.03l.24-.86c.13-.43,.22-.75,.28-.94,.04-.13,.06-.15,.09-.23-.07-.41-.13-.79-.18-1.14-.11-.42-.22-.77-.34-1.06-.12-.3-.25-.52-.38-.67-.19-.23-.43-.39-.72-.48-.29-.09-.66-.14-1.12-.14-.33,0-.63,.03-.91,.08s-.52,.12-.76,.2c-.23,.18-.46,.34-.7,.48-.24,.15-.46,.3-.67,.48-.41,.5-.83,1-1.24,1.5-.42,.49-.81,.95-1.2,1.37-.45,.73-.82,1.41-1.1,2.01-.28,.6-.5,1.09-.66,1.49-.15,.4-.28,.77-.39,1.11-.12,.35-.2,.65-.26,.91-.02,.36-.05,.71-.11,1.06l-.07,.46-.06,.56c-.53,.42-.97,.83-1.31,1.21-.34,.39-.63,.78-.85,1.23,.29,.59,.52,1.09,.7,1.49,.18,.39,.3,.72,.37,.99l.04,.15,.1-.12c.21-.26,.41-.46,.58-.59,.16-.12,.31-.19,.44-.19,.16,0,.29,.08,.43,.25,.14,.18,.29,.47,.45,.86,.2,.49,.39,.91,.57,1.26,.18,.36,.37,.63,.55,.82,.35,.38,.79,.68,1.31,.89,.52,.2,1.13,.3,1.8,.3,.5,0,.95-.04,1.33-.12,.38-.08,.72-.22,.97-.39,.71,0,1.51-.26,2.35-.78,.84-.51,1.78-1.29,2.83-2.38-.11-.31-.25-.67-.44-1.09-.16-.37-.36-.78-.64-1.25Zm-4.81-8.72c.05,.09,.08,.21,.08,.35,0,.24-.05,.49-.16,.73-.1,.24-.26,.49-.47,.74l-.55,.61c-.19,.2-.38,.4-.59,.59l-.35,.58c-.11,.18-.25,.27-.42,.27s-.22-.03-.23-.05c-.03-.03-.04-.09-.04-.17,0-.47,.33-1.22,.99-2.24,.81-1.25,1.28-1.52,1.53-1.52,.1,0,.17,.04,.22,.11Z"></path>
    <path class="cls-2" d="M484.5,521.52c.04-.36,.07-.66,.11-.92,.04-.25,.08-.43,.13-.54,.29-.61,.49-1.29,.6-1.99,.11-.7,.16-1.45,.16-2.23,0-.51-.08-.88-.24-1.15-.17-.28-.43-.42-.78-.42-.43,0-.84,.12-1.23,.35-.39,.23-.74,.58-1.06,1.04-.49,.9-.91,1.72-1.27,2.46-.72,1.41-1.34,2.66-1.87,3.75-.52,1.08-.94,2.05-1.25,2.86-.06,.13-.13,.37-.23,.72-.1,.35-.24,.81-.42,1.37-.13,.45-.25,.84-.39,1.17-.13,.33-.27,.61-.42,.88,0,.36-.06,.67-.17,.9-.11,.23-.27,.39-.49,.49-.52,.24-.95,.44-1.28,.61-.33,.17-.56,.31-.69,.4-.86,.76-1.55,1.35-2.05,1.77-.51,.43-.84,.72-1.01,.89-.38,.43-.78,.87-1.21,1.31-.43,.44-.86,.87-1.3,1.28-.2,.19-.38,.35-.56,.48-.19,.13-.33,.25-.42,.36-.45,.49-.84,.92-1.16,1.3-.33,.38-.56,.68-.66,.85l-.34,.21c-.52,.22-.94,.4-1.25,.54-.32,.15-.52,.27-.62,.37-.12,.12-.28,.28-.54,.53-.24,.23-.52,.54-.86,.97l-.06,.24-.13,.2h0c-.16,.16-.33,.29-.5,.38-.18,.08-.38,.13-.6,.13-.29,0-.54-.13-.77-.38-.24-.26-.45-.67-.65-1.22-.32-.95-.67-1.99-1.03-3.12-.31-.59-.69-1.02-1.14-1.3-.45-.28-.96-.42-1.53-.42-.29,0-.64,.07-1.04,.22-.39,.14-.83,.34-1.33,.6-.44,.27-.82,.53-1.14,.79-.33,.26-.61,.5-.85,.74-.16,.18-.31,.36-.42,.52-.11,.16-.21,.27-.27,.33-.33,.26-.63,.54-.89,.84-.26,.3-.48,.61-.63,.9-.42,.36-.77,.69-1.07,.99s-.53,.59-.67,.86l-.28,.32c-.07,.08-.15,.15-.14,.21,0,0,0,0,0,0-.14-.18-.17-.29-.17-.35,0-.09,.02-.22,.05-.39,.03-.17,.1-.37,.21-.6l.46-1.04c.65-1.92,1.13-3.49,1.43-4.65,.31-1.17,.46-1.98,.46-2.4,0-.79-.16-1.4-.48-1.82-.32-.42-.82-.64-1.49-.64s-1.29,.15-1.87,.44c-.58,.29-1.14,.74-1.65,1.34-.59,.67-1.11,1.24-1.54,1.72-.43,.48-.79,.87-1.1,1.19l-1.69,1.92c-.47,.53-.86,.98-1.19,1.33-.36,.36-.68,.67-.97,.94-.29,.27-.52,.47-.7,.62l-.43,.57c-.11,.14-.19,.28-.27,.45-.11,.1-.22,.2-.33,.28-.13,.09-.23,.15-.33,.2-.13,.14-.25,.29-.37,.43l-.36,.45c-.16,.14-.31,.26-.46,.34-.14,.08-.28,.12-.43,.12-.52,0-.93-.22-1.25-.66s-.47-.95-.46-1.51c0-.83,.02-1.69,.05-2.6-.04-.61-.16-1.07-.37-1.38-.21-.32-.52-.48-.93-.48-.62,0-1.31,.25-2.04,.73-.73,.48-1.51,1.23-2.33,2.2-.16,.11-.3,.2-.43,.27l-.38,.22c-.16,.11-.44,.34-.83,.7l-1.5,1.37c-.52,.5-1,.91-1.42,1.21-.42,.3-.84,.52-1.14,.66l-.19-.15c.52-.74,.95-1.33,1.27-1.78,.32-.45,.54-.73,.66-.85,1.03-.9,1.82-1.65,2.43-2.28,.61-.63,1.01-1.16,1.17-1.53,.42-.31,.75-.58,1.01-.82s.43-.4,.53-.5c.13-.18,.28-.38,.44-.6,.56-.42,1.06-.85,1.47-1.27,.42-.43,.78-.84,1.05-1.2,.52-.39,1.01-.75,1.46-1.08,.3-.2,.52-.46,.66-.76,.14-.3,.21-.65,.21-1.03s-.12-.68-.37-.9c-.24-.21-.6-.32-1.09-.32-.86,0-1.92,.4-3.16,1.17-1.23,.77-2.69,1.95-4.32,3.5-.35,.34-.69,.61-.99,.82-.31,.21-.55,.36-.77,.48-.42,.36-.76,.68-1.03,.95s-.48,.5-.6,.66c-.27,.13-.52,.28-.73,.44-.22,.17-.39,.38-.52,.62-.16,.28-.3,.5-.43,.65-.12,.15-.23,.27-.31,.35l-2.48,1.65c-.18,.31-.34,.56-.47,.77-.13,.2-.23,.34-.32,.49,.16,.36,.31,.7,.45,1.01l.37,.86c.07,.12,.13,.23,.17,.33,.04,.09,.06,.17,.06,.25,0,.14-.02,.33-.03,.51-.42,.42-.74,.86-.95,1.31-.21,.45-.32,.93-.32,1.43,0,.9,.22,1.58,.64,2.02,.43,.44,1.09,.66,1.97,.66,.14,0,.34-.06,.63-.18,.27-.12,.6-.28,.98-.47,.6-.33,1.13-.64,1.61-.95,.48-.31,.91-.62,1.27-.93,.18-.18,.49-.48,.92-.89,.43-.41,.97-.95,1.59-1.59,.47-.38,.88-.7,1.23-.97l.89-.69c.14-.16,.27-.29,.37-.39,.11-.1,.19-.19,.18-.28,0,0,0,0,0,0,.13,.17,.22,.33,.27,.49,.04,.17,.06,.33,.06,.49,.11,1.36,.49,2.4,1.13,3.07,.64,.68,1.57,1.02,2.76,1.02,.51,0,1.03-.11,1.54-.32,.51-.21,1.04-.53,1.59-.94,.45-.36,.89-.75,1.29-1.15s.79-.77,1.21-1.21c0,.01,.01,.02,.02,.04,.17-.19,.29-.35,.36-.5l.15-.3c.31-.29,.58-.55,.82-.78,.24-.23,.45-.41,.62-.53,.12-.06,.33-.24,.64-.56,.31-.31,.71-.73,1.22-1.27,.41-.46,.76-.8,1.05-1.02,.28-.21,.51-.31,.67-.31,.18,0,.31,.03,.38,.09,.07,.06,.1,.13,.1,.24,0,.12-.02,.27-.05,.43-.03,.17-.1,.37-.18,.6-.09,.25-.16,.45-.23,.6-.07,.16-.1,.29-.1,.37-.45,1.51-.84,2.84-1.18,3.97-.34,1.14-.65,2.08-.92,2.87,.06,.51,.11,1.01,.18,1.5,.07,.54,.49,.81,1.25,.81,.37,0,.7-.04,1.01-.12,.31-.08,.59-.23,.83-.44,.24-.22,.47-.44,.7-.66,.24-.23,.47-.46,.7-.69,.92-.94,1.69-1.75,2.3-2.44,.61-.68,1.05-1.25,1.31-1.69,.12-.22,.35-.42,.7-.59,.37-.19,.95-.63,1.77-1.36,.37-.34,.73-.62,1.06-.83,.33-.21,.66-.37,.95-.48l.21,.05c.4,.52,.74,.98,1.04,1.37,.3,.39,.57,.71,.79,.92,.29,.58,.54,1.06,.76,1.45,.22,.4,.4,.67,.55,.81,.28,.37,.61,.65,1,.83,.39,.19,.8,.28,1.22,.28,.37,0,.74-.08,1.11-.24,.37-.16,.77-.43,1.18-.81l.95-.78,.83-.75,.13,.33c0,.35-.15,.9-.45,1.63-.31,.77-.46,1.35-.46,1.77,0,.92,.23,1.61,.67,2.04,.45,.44,1.14,.66,2.06,.66,.52,0,1.13-.22,1.83-.65,.69-.43,1.45-1.1,2.26-2,.6-.65,1.19-1.31,1.79-1.99,.59-.68,1.18-1.35,1.76-2.02,.25-.36,.45-.68,.6-.94,.15-.27,.25-.49,.29-.66,.27-.41,.53-.75,.79-1.02,.25-.26,.49-.47,.72-.63,.06-.08,.14-.2,.16-.35,.01-.01,.02-.02,.03-.04,.29,.38,.5,.74,.62,1.07,.05,.18,.11,.38,.16,.59l.19,.76c.35,1.42,.95,2.49,1.81,3.21,.86,.71,1.98,1.07,3.35,1.07,.62,0,1.15-.08,1.58-.23,.44-.16,.81-.42,1.1-.77,.49-.57,.88-1.02,1.17-1.33,.11-.12,.44-.47,.6-.63-.13-.36-.29-.75-.48-1.17l-.33-.72-.29-.45s-.04-.08-.05-.12c0,0,0,0-.01,.01l-.04-.07c-.36,.39-.71,.68-1.05,.86-.34,.18-.68,.27-1,.27-.29,0-.57-.07-.83-.22-.26-.14-.48-.38-.68-.72-.32-.5-.59-.98-.79-1.41-.21-.44-.36-.81-.44-1.11-.09-.28-.14-.66-.16-1.14-.02-.49-.03-1.07-.03-1.73l1.73-6.25-.09-.54c.16-.25,.3-.48,.42-.68,.11-.19,.21-.33,.29-.46,.01-.06,.07-.22,.28-.66l.69-1.46c.25-.58,.44-1.02,.57-1.34,.13-.33,.2-.54,.2-.66v-.47c0-.15,.02-.27,.04-.34l.39-.52c.04-.23,.07-.43,.11-.61,.04-.17,.06-.33,.03-.41,.18-.2,.34-.43,.46-.67,.12-.24,.19-.5,.21-.76Zm-9.4,13.35c0,.61-.27,1.44-.8,2.47-.54,1.02-1.37,2.29-2.48,3.76-1.07,1.38-2.01,2.47-2.79,3.25s-1.43,1.24-1.88,1.42c-.12-.11-.19-.21-.2-.26,.22-.54,.42-1,.62-1.37l1.46-2.42c.39-.65,.71-1.12,.94-1.38,.81-.91,1.44-1.69,1.9-2.32,.46-.63,.75-1.09,.85-1.35,.54-.43,1.01-.83,1.41-1.19,.36-.32,.66-.61,.92-.86,.04,.11,.06,.2,.06,.26Z"></path>
    <path class="cls-2" d="M509.19,517.01c.15-.07,.4-.12,.74-.15,.43-.06,.94-.14,1.48-.25,.67,.24,1.35,.41,2.01,.53,.67,.12,1.36,.18,2.04,.18,.16,0,.3-.05,.41-.16,.11-.11,.16-.26,.16-.49,0-.16-.02-.4-.05-.71-.04-.3-.05-.52-.03-.66,.04-.31,.05-.61,.05-.89v-.86c-.06-.39-.17-.7-.36-.92-.18-.22-.42-.33-.73-.33h-.03c-.27,.13-.48,.24-.55,.33-.27-.14-.5-.27-.68-.39-.2-.12-.38-.2-.59-.21l-.72,.22c-.34-.07-.61-.13-.8-.19-.18-.05-.45-.11-.81-.16-.23,0-.54-.03-.92-.09-.39-.06-.69-.1-.89-.1-1.07,0-2.05,.06-2.92,.16-.87,.11-1.69,.27-2.4,.49-.28-.03-.56-.05-.86-.05-.37,0-.76,.03-1.16,.08-.72,.09-1.51,.27-2.34,.54-.42,.15-.79,.36-1.09,.64-.31,.28-.54,.63-.68,1.03-.07,.22-.14,.54-.19,.96-.05,.42-.1,.94-.13,1.55-.2,.44-.34,.79-.43,1.06-.09,.28-.14,.48-.14,.59,0,.22,.05,.39,.15,.52,.1,.13,.24,.2,.42,.2h.01c1.84-.5,3.7-1.02,5.57-1.54,.27-.07,.52-.13,.77-.19l.74-.17,.3-.23c.28,.03,.52,.08,.7,.13,.17,.05,.28,.09,.33,.09,0,0,0,0,.01,0l.16,.46c-.02,.43-.03,.8-.03,1.11v.77c-.14,1.06-.28,1.92-.4,2.58-.13,.65-.24,1.11-.35,1.41,.09,.23,.17,.47,.24,.68,0,.06-.02,.2-.13,.53-.09,.28-.23,.64-.41,1.13,.02,.13,.03,.27,.05,.43,.02,.16,.03,.31,.03,.45,0,.27-.03,.56-.08,.89-.05,.33-.11,.71-.16,1.13-.05,.49-.1,.9-.15,1.23-.04,.34-.07,.62-.07,.84,0,.49-.03,1.11-.08,1.86-.06,.76-.15,1.64-.27,2.65-.13,1.01-.21,1.9-.26,2.67-.05,.77-.07,1.4-.07,1.91,0,1.08-.03,2.15-.08,3.23,.14,1.48,.26,2.92,.36,4.35,.09,.21,.16,.39,.2,.53,.05,.15,.09,.26,.12,.29-.09,.56-.15,1.14-.19,1.74,0,.21,.09,.37,.28,.5,.18,.12,.46,.17,.88,.17,.11,0,.23-.06,.36-.18,.12-.11,.27-.25,.43-.42,.27-.13,.57-.29,.91-.5,.12-.1,.21-.23,.28-.4,.06-.16,.13-.36,.18-.66-.07-.29-.15-.59-.24-.87,0-.36,0-.9,.03-1.62,.02-.72,.03-1.25,.03-1.6,0-.18,.04-.46,.11-.84,.07-.39,.11-.69,.11-.89,0-.17-.02-.38-.07-.65-.04-.26-.07-.45-.07-.54,.13-.27,.24-.51,.36-.75,.09-.74,.19-1.5,.3-2.3,0,0,.47-3.42,.54-3.94-.02-.29-.05-.57-.08-.81,.11-.39,.22-.74,.34-1.03,.12-.3,.2-.57,.26-.81,.09-.4,.16-.75,.22-1.06,.06-.31,.08-.59,.08-.81,.13-.52,.25-.98,.38-1.39,.13-.4,.2-.75,.22-1.03l.05-.86c.02-.25,.04-.46,.08-.64,.06-.23,.13-.58,.22-1.04,.09-.46,.22-1.04,.38-1.74,.09-.36,.17-.83,.25-1.4,.07-.57,.11-1.05,.11-1.43,0-.17-.01-.34-.04-.53-.03-.19-.08-.38-.15-.58-.18-.51-.36-.92-.52-1.21-.17-.3-.32-.51-.46-.61-.17-.12-.32-.25-.45-.39s-.22-.27-.28-.36c0-.07,.07-.14,.2-.2Z"></path>
    <path class="cls-2" d="M519.95,528.62c.27,0,.54,.01,.82,.04,.28,.03,.94,.1,.94,.1,.12,0,.31-.05,.56-.16,.28-.12,.64-.33,1.05-.61,.4-.24,.75-.51,1.03-.81s.51-.66,.68-1.07c.07-.18,.18-.48,.31-.9,.13-.42,.29-.95,.47-1.6l.27-1.29c0-.36-.11-.65-.34-.84-.22-.19-.57-.29-1.04-.29-.38,0-.73,.04-1.02,.12-.29,.08-.54,.19-.74,.33-.42,.49-.78,.92-1.03,1.27-.53,.06-1.12,.49-1.8,1.34-.68,.84-1,1.52-1,2.09,0,.62,.07,1.12,.21,1.49,.14,.38,.34,.64,.63,.78Z"></path>
    <path class="cls-2" d="M610.86,542.7s-.03-.07-.04-.1c0,0,0,0,0,0-.01-.02-.02-.05-.04-.07-.28,.23-.52,.39-.72,.49-.21,.1-.78,.62-1.75,1.57-.37,.36-.72,.64-1.04,.84-.31,.2-.58,.3-.8,.3-.09,0-.16-.02-.21-.06-.05-.04-.07-.09-.07-.16,0-.67,.28-1.68,.83-3.01,.56-1.35,.84-2.4,.84-3.13,0-1.37-.18-2.56-.55-3.51-.36-.97-.92-1.73-1.65-2.28-.09-.07-.24-.17-.43-.29-.4-.4-.81-.78-1.23-1.14-.44-.37-.98-.56-1.61-.56-.59,0-1.36,.31-2.3,.93-.94,.62-1.53,1.16-1.78,1.68l.28,1.25c-.37,.85-.98,1.79-1.81,2.78s-1.91,2.04-3.23,3.13c-.27,.39-.54,.76-.82,1.19,0,0,0,0,0-.01-.19,.16-.39,.29-.58,.38s-.35,.18-.44,.23c-.44,.25-.96,.47-1.53,.64-.57,.18-1.21,.29-1.88,.35-.43-.09-.8-.19-1.11-.29-.3-.1-.53-.21-.68-.32-.24-.14-.42-.34-.55-.62-.13-.27-.2-.6-.2-.97,0-.2,.04-.4,.13-.58,.09-.18,.19-.33,.31-.45,1.49-1.45,2.69-2.77,3.58-3.9,.88-1.14,1.46-2.16,1.72-3.03l.24-.86c.13-.43,.22-.75,.28-.94,.04-.13,.06-.15,.09-.23-.07-.41-.13-.79-.18-1.14-.11-.42-.22-.77-.34-1.06-.12-.3-.25-.52-.38-.67-.19-.23-.43-.39-.72-.48-.29-.09-.66-.14-1.12-.14-.33,0-.63,.03-.91,.08s-.52,.12-.76,.2c-.23,.18-.46,.34-.7,.48-.24,.15-.46,.3-.67,.48-.41,.5-.83,1-1.24,1.5-.42,.49-.81,.95-1.2,1.37-.45,.73-.82,1.41-1.1,2.01-.28,.6-.5,1.09-.66,1.49-.15,.4-.28,.77-.39,1.11-.12,.35-.2,.65-.26,.91-.02,.36-.05,.71-.11,1.06l-.07,.46-.06,.56c-.53,.42-.97,.83-1.31,1.21-.32,.37-.59,.74-.8,1.15,0,0,0,0,0,0-.11,.11-.22,.19-.33,.26-.11,.07-.22,.12-.24,.17-.13-.11-.19-.21-.19-.29,0-.06,.09-.34,.67-1.51,.45-.91,.68-1.76,.68-2.55,0-.37-.07-.67-.2-.89-.14-.23-.38-.35-.72-.35-.12,0-.3,.03-.53,.1-.23,.06-.39,.09-.49,.09-.14,0-.35-.02-.64-.07-.29-.05-.51-.07-.63-.07-.56,0-1.2,.4-1.9,1.17-.68,.77-1.45,1.92-2.29,3.47-.02,.19-.05,.34-.09,.47-.05,.13-.08,.26-.09,.38l-.2,.68c-.06,.21-.14,.4-.23,.62,0,.31,.14,.61,.42,.88,.27,.27,.64,.5,1.1,.61-.23,.7-.58,1.23-1.04,1.57-.46,.34-1.05,.51-1.75,.51-.3,0-.57-.14-.81-.42-.24-.28-.41-.71-.5-1.28-.11-.43-.22-.88-.32-1.34s-.21-.92-.29-1.37v-2.38c0-.31,.11-.69,.32-1.13,.22-.45,.54-.97,.97-1.56,.75-1.13,1.4-2.15,1.91-3.03,.51-.89,.92-1.62,1.22-2.2,.1-.1,.19-.26,.29-.51v-.58s.8-.82,.8-.82c.05-.11,.24-.45,.55-1.02,.32-.58,.75-1.4,1.31-2.46,.45-.83,.81-1.54,1.08-2.11,.27-.58,.45-1.07,.52-1.44,.05-.18,.2-.63,.43-1.36,.23-.73,.57-1.71,1-2.93,.29-.85,.51-1.66,.68-2.4,.16-.73,.24-1.41,.24-2,0-.96-.14-1.7-.42-2.19-.29-.5-.7-.76-1.23-.76-.33,0-.67,.05-1.01,.14-.34,.09-.67,.21-1,.36-.58,.29-1.2,.59-1.89,.91-.24,.24-.45,.46-.63,.67-.18,.21-.35,.4-.52,.59-.67,.96-1.34,2.09-1.99,3.37-.66,1.29-1.29,2.77-1.88,4.41-.07,.25-.33,1.08-.78,2.47-.45,1.4-1.08,3.37-1.89,5.91-.13,.47-.27,1.09-.42,1.86-.15,.77-.29,1.67-.42,2.7-.1,.99-.24,1.88-.39,2.63-.15,.74-.32,1.37-.48,1.84-.47,.51-.86,.94-1.17,1.3l-.68,.79-.07,.12s0,0,0,0c-.09,.07-.17,.12-.26,.17-.08,.04-.16,.06-.24,.06-.39,0-.85-.35-1.38-1.04-.54-.7-1.17-1.78-1.87-3.22-.11-.22-.3-.48-.58-.79-.27-.3-.62-.63-1.04-1-.09-.07-.19-.14-.28-.19-.1-.06-.21-.09-.31-.09-.51,0-1.04,.11-1.57,.32-.53,.21-1.05,.52-1.56,.92-.49,.36-.94,.71-1.35,1.06l-1.26,1.04c-.25,.36-.47,.65-.66,.89-.19,.23-.35,.41-.4,.52-.13-.06-.28-.17-.28-.28,0-.11,0-.22,.03-.34,.02-.12,.06-.27,.13-.44,.4-.94,.68-1.94,.84-2.95,.16-1.01,.24-2.09,.24-3.19,0-.77-.13-1.36-.38-1.76-.26-.41-.67-.62-1.21-.62-.5,0-1.17,.3-1.99,.89-.81,.58-1.77,1.48-2.85,2.67-1.24,1.37-2.27,2.46-3.05,3.24-.77,.77-1.28,1.21-1.51,1.33-.1,0-.17-.02-.21-.07-.04-.05-.06-.13-.07-.21,.11-.45,.24-.91,.41-1.41,.14-.61,.26-1.22,.34-1.81,.08-.59,.12-1.14,.12-1.65,0-.61-.12-1.08-.37-1.41-.24-.33-.62-.5-1.15-.5h-.03c-.78,.33-1.49,.61-2.17,.88-.65,.67-1.22,1.26-1.71,1.77-.49,.51-.9,.93-1.24,1.25-.67,.62-1.39,1.32-2.13,2.1-.74,.78-1.52,1.68-2.32,2.67l-.49,.69c-.12,.18-.23,.33-.33,.5h0s-.88,.7-.88,.7c-.3,.24-.58,.48-.85,.72-.35,.28-.7,.48-1.03,.6-.33,.11-.66,.17-.98,.17-.26,0-.47-.04-.64-.11-.16-.08-.29-.19-.38-.37-.05-.06-.16-.29-.39-1.23-.18-.73-.33-1.28-.46-1.63-.07-.58-.16-1.15-.27-1.72-.11-.57-.23-1.13-.35-1.69-.15-.65-.45-1.14-.9-1.46-.44-.32-.99-.49-1.64-.49-.25,0-.49,.07-.74,.2-.24,.13-.46,.35-.65,.65-.46,.66-1.31,1.53-2.53,2.59-1.22,1.07-2.09,1.95-2.59,2.64l-.06,.24-.15,.3c.06,.05,.12,.11,.17,.19,.05,.09,.1,.18,.13,.28,.14,.44,.29,.82,.42,1.14,.11,.27,.22,.5,.37,.71,.01,.03,.03,.07,.04,.09,0,0,0,0,.01-.01,.02,.02,.03,.05,.04,.07,.7-.77,1.3-1.35,1.78-1.74,.47-.37,.84-.56,1.11-.56,.05,0,.15,.04,.34,.28,.16,.2,.35,.51,.56,.93,.18,.27,.34,.51,.49,.71,.14,.19,.25,.36,.31,.49,.61,1.76,1.14,2.81,1.65,3.2,.51,.39,1.57,.58,3.24,.58,.28,0,.69-.13,1.22-.4,.52-.26,1.16-.67,1.9-1.21,.67-.49,1.24-.92,1.72-1.29,.42-.33,.74-.62,1.02-.93v.04s.11-.11,.11-.11c.11-.13,.21-.26,.3-.4,.1-.15,.17-.29,.21-.41,.53-.51,.97-.95,1.33-1.33,.36-.38,.67-.71,.93-1.01,.37-.52,.71-.9,1-1.14,.28-.23,.52-.35,.72-.35,.11,0,.19,.03,.26,.1,.07,.07,.1,.15,.1,.26,0,.76-.32,2.09-.96,3.96-.65,1.91-.97,3.14-.97,3.74,0,.29,.16,.5,.47,.64,.29,.13,.71,.2,1.27,.2,.13,0,.4-.1,1.28-.93,.64-.6,1.51-1.55,2.59-2.8,.68-.76,1.36-1.51,2.02-2.26l1.92-2.19c.58-.43,1-.77,1.26-1,.26-.24,.5-.47,.72-.7,.2-.18,.37-.31,.51-.38s.27-.11,.38-.11c.12,0,.23,.05,.32,.14,.09,.09,.14,.23,.14,.39l-.39,2.73c-.1,.68-.17,1.14-.23,1.38-.02,.17-.1,.49-.24,.93-.15,.45-.33,1.05-.57,1.81-.18,.6-.32,1.12-.43,1.56-.11,.45-.17,.81-.17,1.09,0,.24,.04,.46,.11,.64,.08,.19,.2,.32,.39,.39,.45,.05,.82,.08,1.09,.08,.57,0,1.93-1.37,4.14-4.18,2.15-2.73,3.71-4.12,4.61-4.12,.67,0,1.68,.8,2.98,2.39,1.33,1.62,2.65,2.45,3.91,2.45,.39,0,.85-.13,1.36-.4,.5-.26,1.07-.64,1.72-1.21,.01,.02,.02,.03,.03,.05l.25-.25,.13-.08,.2,.05c.05,.06,.08,.14,.11,.23,.03,.09,.04,.2,.04,.34,0,.85,.08,1.76,.24,2.69,.16,.94,.43,1.97,.81,3.1,.29,.25,.56,.47,.8,.66,.25,.19,.48,.34,.7,.45,.29,.18,.56,.31,.79,.37,.23,.06,.47,.1,.71,.1,.53,0,1.07-.13,1.59-.37,.52-.25,1.05-.64,1.57-1.16,.34-.31,.64-.56,.91-.77,.27-.21,.49-.37,.69-.51,.43-.54,.82-1.01,1.17-1.4,.35-.4,.66-.75,.84-1.03,.25,.02,.47,.03,.65,.04,.17,0,.47,.01,.47,.01,.41-.04,.91-.27,1.5-.69,.54-.39,1.17-.95,1.89-1.7v.02s.1-.12,.1-.12c0-.01,.02-.02,.03-.03,0,0,.01-.01,.02-.02,0,0,0,0,0,0,.19-.24,.38-.42,.54-.54,.16-.12,.31-.19,.44-.19,.16,0,.29,.08,.43,.25,.14,.18,.29,.47,.45,.86,.2,.49,.39,.91,.57,1.26,.18,.36,.37,.63,.55,.82,.35,.38,.79,.68,1.31,.89,.52,.2,1.13,.3,1.8,.3,.5,0,.95-.04,1.33-.12,.38-.08,.72-.22,.97-.39,.71,0,1.51-.26,2.35-.78,.83-.51,1.76-1.27,2.79-2.34,0,.01,.01,.03,.02,.04,.17-.19,.29-.35,.36-.5l.13-.29c.59-.39,1.07-.77,1.44-1.12,.36-.34,.63-.66,.77-.91,.28-.15,.62-.43,1.05-.85s.89-.95,1.41-1.6c.48-.59,.96-1.08,1.42-1.48,.46-.39,.89-.7,1.24-.9,.57,.07,1,.35,1.28,.83,.29,.49,.43,1.21,.43,2.15,0,.77-.1,1.64-.31,2.61-.21,.97-.51,2.03-.9,3.15-.09,.25-.2,.49-.32,.73-.13,.24-.24,.49-.35,.72-.15,.31-.26,.6-.34,.86-.08,.27-.13,.51-.13,.71,0,.53,.2,.92,.61,1.16,.39,.23,.96,.35,1.74,.35h.02c.47-.15,.9-.34,1.26-.58,1.37-.83,2.55-1.56,3.53-2.2,.98-.64,1.78-1.19,2.4-1.64,.29-.25,.54-.48,.75-.68,.21-.2,.39-.37,.57-.6-.18-.47-.37-.91-.57-1.33-.17-.36-.33-.69-.54-1.03Zm-22.83-8.69c.05,.09,.08,.21,.08,.35,0,.24-.05,.49-.16,.73-.1,.24-.26,.49-.47,.74l-.55,.61c-.19,.2-.38,.4-.59,.59l-.35,.58c-.11,.18-.25,.27-.42,.27s-.22-.03-.23-.05c-.03-.03-.04-.09-.04-.17,0-.47,.33-1.22,.99-2.24,.81-1.25,1.28-1.52,1.53-1.52,.1,0,.17,.04,.22,.11Zm-13.02-13.39c.15-.28,.25-.32,.28-.33,.05,.04,.09,.08,.11,.13,.02,.05,.03,.12,.03,.2,0,.12-.03,.24-.08,.38-.05,.14-.13,.28-.24,.42l-.47,.8c-.25,.79-.48,1.52-.68,2.16-.2,.65-.37,1.22-.51,1.71-.06,.2-.2,.59-.44,1.18-.24,.59-.62,1.41-1.12,2.46-.54,1.19-.98,2.1-1.31,2.73-.36,.69-.54,.91-.57,1.02,0,0,0,0-.01,.01l-.04-.19c0-.44,.1-1.03,.29-1.76,.2-.73,.5-1.59,.92-2.56,.32-.83,.65-1.6,.97-2.31,.32-.7,.66-1.35,1-1.93,.4-.67,.72-1.25,.98-1.73,.25-.49,.42-.93,.49-1.29,.13-.48,.26-.85,.4-1.1Z"></path>
    <path class="cls-2" d="M637.45,538.33c-.23-.27-.61-.4-1.11-.4h-5.04c-.63,.13-1.25,.24-1.82,.36-.34-.14-.77-.28-1.32-.41l-.69,.23c-.18,.06-.34,.1-.52,.16l-.42,.8c-.12,.23-.21,.41-.27,.53-.35,.31-.61,.57-.79,.78-.2,.23-.29,.39-.29,.52,0,.28,.11,.49,.33,.65,.21,.14,.49,.22,.83,.22,.24,0,.55-.03,.94-.1,.38-.06,.69-.09,.92-.09,.17,0,1.05,.13,2.61,.38h.01s.01,0,.01,0c.65-.11,1.3-.22,1.94-.35h1.54c.18,0,.45,.03,.83,.08,.38,.06,.67,.08,.85,.08,.58,0,1.03-.19,1.34-.57,.31-.37,.46-.93,.46-1.67,0-.52-.12-.92-.34-1.19Z"></path>
  </g>
  <g>
    <path class="cls-1" d="M95.44,434.35h9.9l-12.37,61.87h-9.72l-12.37-61.87h9.9l7.34,41.81,7.34-41.81Z"></path>
    <path class="cls-1" d="M119.57,444.07v15.56h10.96v9.72h-10.96v17.15h15.91v9.72h-25.63v-61.87h25.63v9.72h-15.91Z"></path>
    <path class="cls-1" d="M154.48,496.93c-4.13,0-7.54-1.21-10.25-3.62-2.95-2.95-4.42-6.81-4.42-11.58v-32.88c0-4.77,1.47-8.63,4.42-11.58,2.71-2.42,6.13-3.62,10.25-3.62s7.66,1.21,10.25,3.62c2.95,2.83,4.42,6.69,4.42,11.58v5.48h-9.72v-5.48c0-2.18-.41-3.65-1.24-4.42-.77-.71-2-1.06-3.71-1.06s-2.86,.35-3.62,1.06c-.88,.83-1.33,2.3-1.33,4.42v32.88c0,2.12,.44,3.6,1.33,4.42,.76,.71,1.97,1.06,3.62,1.06s2.95-.35,3.71-1.06c.82-.76,1.24-2.24,1.24-4.42v-7.95h9.72v7.95c0,4.89-1.47,8.75-4.42,11.58-2.59,2.42-6.01,3.62-10.25,3.62Z"></path>
    <path class="cls-1" d="M201.95,444.07h-9.9v52.15h-9.72v-52.15h-9.9v-9.72h29.52v9.72Z"></path>
    <path class="cls-1" d="M220.16,496.93c-4.24,0-7.66-1.21-10.25-3.62-2.95-2.83-4.42-6.69-4.42-11.58v-32.88c0-4.89,1.47-8.75,4.42-11.58,2.59-2.42,6.01-3.62,10.25-3.62s7.66,1.21,10.25,3.62c2.95,2.83,4.42,6.69,4.42,11.58v32.88c0,4.89-1.47,8.75-4.42,11.58-2.59,2.42-6.01,3.62-10.25,3.62Zm0-53.56c-1.65,0-2.86,.35-3.62,1.06-.88,.83-1.33,2.3-1.33,4.42v32.88c0,2.12,.44,3.6,1.33,4.42,.76,.71,1.97,1.06,3.62,1.06s2.92-.35,3.62-1.06c.88-.76,1.33-2.24,1.33-4.42v-32.88c0-2.18-.44-3.65-1.33-4.42-.71-.71-1.92-1.06-3.62-1.06Z"></path>
    <path class="cls-1" d="M270.18,496.22h-9.9l-5.04-24.84h-4.42v24.84h-9.72v-61.87h14.67c4.18,0,7.6,1.24,10.25,3.71,2.95,2.71,4.42,6.54,4.42,11.49v6.63c0,5.01-1.47,8.87-4.42,11.58-.41,.41-.88,.8-1.41,1.15l5.57,27.31Zm-9.46-46.67c0-2.06-.44-3.54-1.33-4.42-.77-.71-1.97-1.06-3.62-1.06h-4.95v17.59h4.95c1.65,0,2.86-.35,3.62-1.06,.88-.82,1.33-2.3,1.33-4.42v-6.63Z"></path>
    <path class="cls-1" d="M330.91,434.35l-7.6,61.87h-5.39l-8.66-30.76-8.57,30.76h-5.39l-7.6-61.87h9.81l3.36,30.85,5.66-21.04h5.57l5.66,21.04,3.36-30.85h9.81Z"></path>
    <path class="cls-1" d="M349.47,496.93c-4.24,0-7.66-1.21-10.25-3.62-2.95-2.83-4.42-6.69-4.42-11.58v-32.88c0-4.89,1.47-8.75,4.42-11.58,2.59-2.42,6.01-3.62,10.25-3.62s7.66,1.21,10.25,3.62c2.95,2.83,4.42,6.69,4.42,11.58v32.88c0,4.89-1.47,8.75-4.42,11.58-2.59,2.42-6.01,3.62-10.25,3.62Zm0-53.56c-1.65,0-2.86,.35-3.62,1.06-.88,.83-1.33,2.3-1.33,4.42v32.88c0,2.12,.44,3.6,1.33,4.42,.77,.71,1.97,1.06,3.62,1.06s2.92-.35,3.62-1.06c.88-.76,1.33-2.24,1.33-4.42v-32.88c0-2.18-.44-3.65-1.33-4.42-.71-.71-1.92-1.06-3.62-1.06Z"></path>
    <path class="cls-1" d="M384.47,496.93c-4.24,0-7.66-1.21-10.25-3.62-2.95-2.83-4.42-6.69-4.42-11.58v-32.88c0-4.89,1.47-8.75,4.42-11.58,2.59-2.42,6.01-3.62,10.25-3.62s7.66,1.21,10.25,3.62c2.95,2.83,4.42,6.69,4.42,11.58v32.88c0,4.89-1.47,8.75-4.42,11.58-2.59,2.42-6.01,3.62-10.25,3.62Zm0-53.56c-1.65,0-2.86,.35-3.62,1.06-.88,.83-1.33,2.3-1.33,4.42v32.88c0,2.12,.44,3.6,1.33,4.42,.77,.71,1.97,1.06,3.62,1.06s2.92-.35,3.62-1.06c.88-.76,1.33-2.24,1.33-4.42v-32.88c0-2.18-.44-3.65-1.33-4.42-.71-.71-1.92-1.06-3.62-1.06Z"></path>
    <path class="cls-1" d="M420.09,496.22h-14.67v-61.87h14.67c4.18,0,7.6,1.24,10.25,3.71,2.95,2.71,4.42,6.54,4.42,11.49v31.82c0,2.42-.35,4.57-1.06,6.45-.83,2-1.97,3.65-3.45,4.95-2.53,2.3-5.92,3.45-10.17,3.45Zm-4.95-9.72h4.95c1.77,0,3.01-.32,3.71-.97,.82-.71,1.24-2.09,1.24-4.16v-31.82c0-2.06-.44-3.54-1.33-4.42-.77-.71-1.98-1.06-3.62-1.06h-4.95v42.43Z"></path>
    <path class="cls-1" d="M455.1,496.93c-4.13,0-7.54-1.21-10.25-3.62-2.95-2.95-4.42-6.81-4.42-11.58v-32.88c0-4.77,1.47-8.63,4.42-11.58,2.71-2.42,6.13-3.62,10.25-3.62s7.66,1.21,10.25,3.62c2.95,2.83,4.42,6.69,4.42,11.58v5.48h-9.72v-5.48c0-2.18-.41-3.65-1.24-4.42-.77-.71-2-1.06-3.71-1.06s-2.86,.35-3.62,1.06c-.88,.83-1.33,2.3-1.33,4.42v32.88c0,2.12,.44,3.6,1.33,4.42,.77,.71,1.97,1.06,3.62,1.06s2.95-.35,3.71-1.06c.82-.76,1.24-2.24,1.24-4.42v-7.95h9.72v7.95c0,4.89-1.47,8.75-4.42,11.58-2.59,2.42-6.01,3.62-10.25,3.62Z"></path>
    <path class="cls-1" d="M504.77,496.22h-9.9l-5.04-24.84h-4.42v24.84h-9.72v-61.87h14.67c4.18,0,7.6,1.24,10.25,3.71,2.95,2.71,4.42,6.54,4.42,11.49v6.63c0,5.01-1.47,8.87-4.42,11.58-.41,.41-.88,.8-1.42,1.15l5.57,27.31Zm-9.46-46.67c0-2.06-.44-3.54-1.33-4.42-.77-.71-1.98-1.06-3.62-1.06h-4.95v17.59h4.95c1.65,0,2.86-.35,3.62-1.06,.88-.82,1.33-2.3,1.33-4.42v-6.63Z"></path>
    <path class="cls-1" d="M531.38,486.41h-11.14l-1.77,9.81h-9.9l12.38-61.87h9.72l12.38,61.87h-9.9l-1.77-9.81Zm-1.68-9.72l-3.89-22.19-3.89,22.19h7.78Z"></path>
    <path class="cls-1" d="M557.54,444.07v15.56h11.05v9.72h-11.05v26.87h-9.72v-61.87h25.63v9.72h-15.91Z"></path>
    <path class="cls-1" d="M605.53,444.07h-9.9v52.15h-9.72v-52.15h-9.9v-9.72h29.52v9.72Z"></path>
    <path class="cls-1" d="M623.12,496.93c-4.24,0-7.66-1.21-10.25-3.62-2.95-2.83-4.42-6.69-4.42-11.58v-8.04h9.72v8.04c0,2.12,.44,3.6,1.33,4.42,.76,.71,1.97,1.06,3.62,1.06s2.92-.35,3.62-1.06c.88-.76,1.33-2.24,1.33-4.42v-3.89c0-2.71-1.09-5.07-3.27-7.07-.47-.41-1.71-1.18-3.71-2.3-2.77-1.47-4.8-2.77-6.1-3.89-2.12-1.89-3.74-4.04-4.86-6.45-1.12-2.42-1.68-5.01-1.68-7.78v-1.5c0-4.89,1.47-8.75,4.42-11.58,2.59-2.42,6.01-3.62,10.25-3.62s7.66,1.21,10.25,3.62c2.95,2.83,4.42,6.69,4.42,11.58v5.39h-9.72v-5.39c0-2.18-.44-3.65-1.33-4.42-.71-.71-1.92-1.06-3.62-1.06s-2.86,.35-3.62,1.06c-.88,.83-1.33,2.3-1.33,4.42v1.5c0,2.71,1.09,5.04,3.27,6.98,.59,.47,1.74,1.18,3.45,2.12,3.06,1.65,5.19,3.01,6.36,4.07,4.36,3.89,6.54,8.66,6.54,14.32v3.89c0,4.89-1.47,8.75-4.42,11.58-2.59,2.42-6.01,3.62-10.25,3.62Z"></path>
  </g>
</svg></svg></g></svg>