<?xml version="1.0" encoding="UTF-8"?>
<svg id="Layer_1" data-name="Layer 1" xmlns="http://www.w3.org/2000/svg" viewBox="0 0 566.93 283.46">
  <defs>
    <style>
      .cls-1 {
        fill: #009444;
      }

      .cls-2 {
        fill: #572b0d;
      }
    </style>
  </defs>
  <g>
    <path class="cls-1" d="M38.39,223.68h-4.54c-.57,.12-1.13,.22-1.64,.32-.31-.13-.7-.25-1.23-.35l-.58,.19c-.17,.06-.3,.09-.47,.14l-.38,.72-.24,.48c-.31,.28-.55,.51-.71,.7-.18,.2-.26,.35-.26,.47,0,.25,.1,.45,.3,.58,.19,.13,.44,.19,.74,.19,.21,0,.5-.03,.85-.09,.34-.06,.62-.08,.83-.08,.16,0,.95,.11,2.35,.34h.01s.01,0,.01,0c.58-.1,1.17-.2,1.74-.31h1.39c.16,0,.41,.02,.74,.07,.35,.05,.6,.08,.76,.08,.52,0,.93-.17,1.21-.51,.28-.34,.42-.84,.42-1.5,0-.47-.1-.83-.31-1.07-.21-.24-.55-.36-1-.36Z"/>
    <path class="cls-1" d="M169.57,208.91c.03-.32,.07-.6,.1-.82,.03-.22,.07-.39,.12-.49,.26-.55,.44-1.16,.54-1.8,.1-.63,.15-1.31,.15-2.01,0-.46-.07-.79-.22-1.03-.15-.25-.39-.37-.7-.37-.38,0-.76,.11-1.11,.31-.35,.21-.67,.52-.95,.94-.44,.81-.82,1.55-1.14,2.22-.65,1.27-1.21,2.39-1.68,3.37-.47,.97-.85,1.84-1.12,2.57-.05,.11-.12,.33-.21,.65-.09,.32-.22,.73-.38,1.23-.11,.4-.23,.75-.35,1.05-.12,.3-.24,.55-.38,.79,0,.33-.05,.6-.15,.81-.1,.2-.25,.35-.44,.44-.47,.21-.85,.39-1.15,.55-.3,.15-.5,.27-.62,.36-.78,.68-1.4,1.21-1.85,1.59-.46,.38-.76,.65-.91,.8-.34,.39-.7,.78-1.09,1.18-.39,.4-.78,.78-1.17,1.16-.18,.17-.34,.32-.5,.43-.17,.12-.3,.23-.38,.33-.41,.44-.76,.83-1.05,1.17-.3,.35-.5,.61-.59,.77l-.31,.19c-.47,.19-.85,.36-1.12,.49-.29,.14-.47,.24-.56,.33-.1,.11-.25,.25-.49,.47-.21,.2-.47,.49-.77,.87l-.06,.22-.11,.17s0,0,0,0c-.17,.14-.35,.26-.52,.34s-.31,.16-.39,.21c-.4,.23-.86,.42-1.37,.58-.51,.16-1.09,.27-1.69,.31-.39-.08-.72-.17-1-.27-.27-.09-.47-.19-.61-.29-.21-.12-.38-.31-.49-.55-.12-.25-.18-.54-.18-.87,0-.18,.04-.36,.12-.52,.08-.16,.17-.3,.28-.4,1.34-1.31,2.43-2.49,3.22-3.51,.8-1.02,1.32-1.94,1.55-2.72l.22-.78c.11-.39,.2-.67,.25-.85,.04-.11,.05-.14,.08-.21-.06-.37-.11-.71-.16-1.03-.1-.38-.2-.69-.31-.96-.11-.26-.22-.47-.34-.6-.17-.2-.39-.35-.65-.44-.26-.08-.6-.12-1.01-.12-.3,0-.57,.02-.82,.07-.25,.05-.47,.11-.69,.18-.21,.16-.42,.31-.63,.43-.21,.13-.41,.27-.6,.43-.37,.45-.75,.9-1.12,1.35-.37,.44-.73,.85-1.08,1.24-.4,.66-.73,1.27-.99,1.81-.25,.54-.45,.98-.6,1.34-.13,.36-.25,.69-.35,1-.11,.31-.18,.58-.23,.82-.02,.32-.05,.64-.1,.95l-.12,.92c-.47,.38-.87,.74-1.18,1.09-.3,.33-.54,.67-.73,1.05-1.07,.91-1.91,1.6-2.51,2.06-.8,.62-.98,.69-1.02,.69-.14,0-.24-.05-.31-.16-.07-.12-.11-.3-.11-.55,0-.29,.07-.86,.21-1.69,.14-.84,.34-1.95,.6-3.3,.42-1.7,.8-3.18,1.15-4.43,.34-1.24,.65-2.28,.93-3.09,.08-.31,.15-.58,.2-.82l.07-.54,1.64-.34c.23-.02,.39-.31,.49-.87,.09-.53,.13-1.29,.13-2.26,0-.23-.02-.43-.06-.59-.04-.17-.12-.29-.22-.36-.11-.09-.19-.18-.24-.24-.05-.07-.09-.13-.12-.16,.03-.3,.16-.76,.37-1.36,.22-.61,.33-1.12,.33-1.5,0-.48-.11-.86-.33-1.12-.22-.26-.54-.39-.95-.39-.77,0-1.46,.76-2.12,2.33-.63,1.49-1.22,2.28-1.73,2.34l-.84-.24-.67,.13c-.2,.04-.41,.08-.59,.14-.17-.05-.41-.09-.72-.12-.29-.03-.65-.05-1.07-.05h-.07c-.21,.05-.44,.1-.65,.15-.31-.07-.67-.12-1.07-.16s-.83-.06-1.29-.06c-.48,0-.85,.29-1.08,.87-.22,.56-.33,1.37-.33,2.41,0,.16,.06,.31,.18,.43,.11,.11,.27,.2,.47,.27,.13,.07,.27,.13,.41,.18,.14,.06,.28,.12,.48,.21,.13,0,.34,0,.64,.02,.3,.02,.52,.02,.65,.02h3.04c.12,0,.29-.03,.52-.09,.26-.07,.39-.08,.46-.08,.09,0,.16,.02,.19,.05,.04,.04,.05,.09,.06,.14-.19,.44-.37,.8-.53,1.09-.16,.29-.31,.52-.44,.71-1.06,1.92-2.15,3.64-3.24,5.11-1.09,1.47-2.22,2.76-3.37,3.83l-.55,.68c-.15,.19-.28,.36-.38,.5l-.05,.2s0-.01-.01-.02c-.46,.55-.87,1.15-1.23,1.76-.37,.62-.67,1.26-.89,1.9-.03,.06-.11,.26-.37,1.24-.19,.72-.49,1.73-.9,3.03-.08,.35-.18,.64-.3,.86-.12,.23-.22,.42-.29,.6l.08,.45c-.76,1.98-1.38,3.49-1.86,4.48-.61,1.27-.88,1.46-1,1.46-.02,0-.09-.02-.16-.35-.06-.27-.11-.65-.16-1.15-.05-.42-.08-.82-.1-1.21,0-1.02,.06-2.23,.17-3.61,.11-1.37,.28-2.96,.51-4.73,.23-1.87,.48-3.52,.74-4.89,.27-1.37,.55-2.52,.83-3.41,.18-.39,.33-.71,.47-.97,.13-.25,.26-.43,.38-.56,.1-.23,.18-.44,.23-.63,.06-.18,.11-.33,.15-.44,.31-.63,.57-1.18,.78-1.63,.21-.45,.4-.82,.56-1.13,.7-2.12,1.29-4.01,1.75-5.61,.47-1.61,.84-2.98,1.1-4.06,.27-2.25,.39-3.35,.39-3.49,0-.57-.01-1.03-.04-1.39-.02-.36-.05-.62-.09-.76-.08-.39-.27-.68-.54-.86-.27-.18-.63-.27-1.06-.27-.57,0-1.13,.28-1.66,.84-.52,.55-1.02,1.37-1.47,2.44-1.24,3.05-2.28,5.94-3.09,8.59-.81,2.65-1.38,5.17-1.71,7.48-.08,.48-.19,.96-.33,1.4-.14,.45-.32,.89-.54,1.3-.11,.23-.3,.54-.56,.96-.26,.41-.58,.9-.97,1.47l-.38,.5c-.1,.13-.17,.25-.24,.4-.1,.09-.2,.18-.3,.25-.12,.08-.21,.13-.29,.18-.11,.13-.22,.26-.33,.39l-.32,.41c-.14,.13-.28,.23-.41,.31-.13,.08-.26,.11-.39,.11-.47,0-.83-.19-1.12-.59-.29-.4-.43-.85-.41-1.36,0-.75,.02-1.52,.05-2.34-.03-.54-.14-.96-.33-1.24-.19-.29-.47-.43-.84-.43-.56,0-1.18,.22-1.84,.66-.65,.43-1.36,1.1-2.09,1.98-.14,.1-.27,.18-.39,.24l-.34,.2c-.15,.1-.4,.31-.75,.63l-1.35,1.23c-.47,.45-.9,.82-1.28,1.09-.38,.27-.75,.46-1.02,.6l-.17-.14c.47-.66,.85-1.2,1.14-1.61,.29-.4,.49-.66,.6-.77,.92-.81,1.64-1.48,2.18-2.05,.54-.57,.91-1.04,1.05-1.38,.38-.28,.68-.52,.91-.73,.23-.21,.38-.36,.47-.45,.11-.16,.25-.35,.4-.54,.51-.38,.95-.76,1.32-1.14,.38-.38,.7-.75,.94-1.08,.47-.35,.91-.68,1.31-.97,.27-.19,.47-.42,.6-.68,.13-.27,.19-.58,.19-.93s-.11-.62-.33-.81c-.22-.19-.54-.28-.98-.28-.77,0-1.73,.36-2.85,1.06-1.11,.69-2.42,1.75-3.89,3.15-.32,.31-.62,.55-.89,.73-.27,.19-.5,.33-.69,.43-.38,.33-.68,.61-.93,.85-.25,.25-.43,.45-.54,.59-.25,.12-.47,.25-.66,.4-.19,.15-.35,.34-.47,.56-.14,.25-.27,.45-.38,.58-.11,.14-.21,.24-.28,.32l-2.24,1.48c-.16,.27-.3,.5-.42,.69-.11,.17-.2,.29-.27,.42,0,0,0,0,0,0,0,0,0,0,0,0-.01-.02-.02-.04-.04-.06-.25,.21-.47,.35-.64,.44-.19,.09-.7,.56-1.57,1.41-.34,.32-.65,.58-.94,.76-.28,.18-.52,.27-.72,.27-.08,0-.14-.02-.19-.06-.04-.04-.06-.08-.06-.14,0-.61,.25-1.52,.75-2.71,.5-1.21,.76-2.16,.76-2.81,0-1.24-.17-2.3-.49-3.16-.33-.87-.83-1.56-1.48-2.05-.08-.07-.21-.16-.38-.26-.36-.36-.73-.7-1.11-1.03-.39-.33-.88-.5-1.44-.5-.53,0-1.23,.28-2.07,.84-.84,.55-1.38,1.05-1.6,1.51l.25,1.13c-.34,.77-.89,1.61-1.63,2.5-.75,.89-1.72,1.83-2.91,2.82-.24,.35-.49,.69-.74,1.08,0,0,0,0,0-.01-.37,.41-.76,.78-1.16,1.1-.4,.31-.84,.57-1.34,.77-.2,.2-.36,.38-.48,.54-.12,.16-.22,.3-.25,.39-.28,0-.6,.07-.93,.21-.33,.14-.67,.38-.97,.69-.38,.13-.7,.25-.97,.37-.27,.11-.49,.23-.63,.34-.92,.18-1.65,.31-2.18,.39-.52,.08-.82,.12-.9,.12-.88,0-1.72-.19-2.49-.56-.78-.38-1.52-.94-2.22-1.69-.23-.16-.46-.35-.71-.56-.11-.08-.2-.18-.29-.3-.08-.12-.14-.24-.17-.34-.08-.47-.2-.9-.34-1.28-.15-.38-.31-.71-.49-.99-.31-.49-.53-.85-.68-1.11-.18-.31-.21-.43-.21-.46l.24-2.24c-.11-.41-.24-.85-.39-1.3,.18-.78,.32-1.46,.41-2.03l.24-1.45c.16-1.27,.47-2.56,.92-3.82,.45-1.26,1.05-2.54,1.79-3.79,.9-1.44,1.85-2.59,2.84-3.41,.99-.82,2.03-1.32,3.1-1.5l.69-.17c.27-.06,.58-.16,.88-.29,.42,.13,.85,.24,1.28,.33,.43,.09,.85,.18,1.27,.28,.42,.17,.74,.43,.95,.75,.21,.33,.32,.72,.32,1.15,0,.31-.11,.66-.32,1.05-.21,.39-.55,.8-1.02,1.24-.13,.17-.31,.58-.52,1.25-.21,.65-.45,1.56-.73,2.69-.26,1.04-.46,1.89-.58,2.56-.13,.66-.2,1.12-.2,1.36l.15,1.87c0,.09-.03,.26-.08,.5-.06,.25-.09,.43-.09,.55,0,.11,.05,.26,.26,.35,.15,.06,.39,.09,.76,.09h.04c.74-.19,1.44-.37,2.09-.54,.19-.06,.39-.33,.65-.85,.24-.49,.54-1.23,.88-2.19,.32-.88,.59-1.61,.79-2.2,.21-.6,.31-1.03,.33-1.29,.19-.97,.35-1.83,.47-2.57,.12-.74,.23-1.35,.33-1.84,.03-.16,.06-.47,.07-.92,.02-.45,.02-1.04,.02-1.79,0-1.59-.16-2.83-.47-3.67-.32-.86-.82-1.38-1.49-1.53l-.75-.13c-.31-.23-.74-.4-1.27-.51-.52-.11-1.17-.16-1.91-.16-.35,0-1.07,.16-2.21,.49-1.14,.33-1.79,.58-1.97,.74-.16,.13-.31,.25-.43,.37-.12,.11-.22,.19-.29,.23l-.83,.41c-.23,.11-.42,.2-.6,.28-.55,.52-1.02,.94-1.42,1.27-.39,.33-.73,.58-1.02,.75-.29,.31-.55,.59-.76,.85-.21,.26-.39,.47-.53,.63-.67,.67-1.26,1.32-1.77,1.93-.51,.62-.94,1.23-1.26,1.81-.37,.76-.75,1.55-1.12,2.36-.37,.81-.75,1.61-1.12,2.41-.1,.21-.18,.41-.23,.58-.06,.17-.09,.33-.09,.48l.07,.51c-.11,.4-.23,.77-.36,1.09-.13,.32-.25,.6-.37,.85l-.34,2.77c-.08,.67-.12,1.07-.12,1.2s.04,.33,.11,.58c.07,.24,.17,.55,.3,.89l-.27,1.1c-.02,.14,.03,.43,.15,.88,.11,.44,.28,1.02,.51,1.73l.66,2.1c.13,.36,.35,.77,.65,1.21,.3,.44,.7,.91,1.19,1.4,.5,.52,.98,.93,1.41,1.23,.44,.3,.82,.46,1.14,.47l.67,.08,.34,.31c.19,.02,.43,.06,.72,.14l1.07,.29c.34,.1,.66,.18,.96,.26,.31,.08,.59,.11,.83,.11,.77,0,1.55-.07,2.3-.21,.74-.14,1.46-.36,2.13-.67,.46-.18,1.01-.45,1.7-.82,.67-.37,1.45-.8,2.33-1.3,.97-.58,1.82-1.12,2.55-1.61,.7-.47,1.29-.89,1.8-1.31,0,0,0,0,0,.01,.01-.01,.01-.02,.02-.03,0,0,.01,0,.02-.01,0,0,0,0,0-.01,.12-.14,.23-.28,.29-.4l.12-.27c.53-.35,.97-.69,1.3-1,.33-.31,.57-.59,.69-.82,.25-.13,.56-.38,.94-.77,.38-.38,.8-.86,1.27-1.44,.43-.53,.86-.98,1.28-1.33,.42-.35,.81-.63,1.11-.81,.51,.06,.9,.31,1.15,.74,.26,.44,.39,1.09,.39,1.94,0,.69-.09,1.48-.28,2.35-.19,.87-.46,1.82-.81,2.84-.08,.22-.18,.44-.29,.66-.11,.22-.22,.44-.32,.65-.13,.28-.23,.54-.31,.78-.08,.25-.11,.46-.11,.64,0,.48,.18,.83,.55,1.05,.35,.21,.88,.31,1.57,.31h.02c.42-.13,.81-.31,1.14-.52,1.23-.75,2.29-1.41,3.18-1.98,.89-.58,1.6-1.07,2.16-1.48,.26-.23,.48-.43,.67-.61,.14-.14,.27-.26,.4-.41,0,.11-.01,.23-.02,.35-.38,.38-.67,.77-.85,1.18-.19,.41-.29,.84-.29,1.28,0,.81,.19,1.42,.58,1.81,.39,.39,.98,.59,1.78,.59,.12,0,.31-.05,.56-.16,.24-.11,.54-.25,.88-.43,.54-.29,1.02-.58,1.45-.85,.43-.28,.82-.56,1.14-.84,.16-.16,.44-.43,.83-.8,.39-.37,.87-.85,1.43-1.43,.42-.34,.79-.63,1.11-.87l.8-.62c.13-.14,.24-.26,.34-.35,.09-.09,.17-.17,.16-.25,0,0,0,0,0,0,.12,.15,.2,.3,.24,.44,.04,.15,.06,.29,.06,.44,.1,1.23,.44,2.16,1.02,2.77,.58,.61,1.41,.92,2.48,.92,.46,0,.93-.1,1.39-.29,.46-.19,.94-.47,1.43-.85,.4-.32,.8-.67,1.16-1.04,.34-.34,.68-.67,1.03-1.04l.59,.48c-.18,1.1-.33,2.09-.45,2.95-.12,.86-.21,1.57-.25,2.16l.29,1.47c0,.19-.04,.47-.11,.84-.07,.38-.11,.66-.11,.84v3.7c0,.42,.02,.81,.07,1.17,.05,.35,.12,.69,.22,1.01,.06,.5,.13,1.01,.18,1.52,.06,.51,.13,1.03,.21,1.56,.17,.63,.46,1.11,.89,1.42,.42,.32,1,.48,1.71,.48,.24,0,.47-.06,.69-.19,.21-.12,.42-.3,.63-.52,.13-.19,.27-.4,.42-.61,.16-.21,.29-.43,.4-.63,.7-1.01,1.45-2.56,2.22-4.6,.77-2.04,1.58-4.65,2.39-7.73,.11-.44,.22-.9,.33-1.38,.11-.48,.23-.94,.38-1.4,.13-.53,.3-1.02,.51-1.46,.2-.42,.4-.77,.62-1.11h0c.16-.23,.31-.43,.43-.59,.13-.16,.22-.29,.26-.36,.86-.81,1.7-1.61,2.53-2.41,.54-.47,1-.93,1.39-1.36,.39-.43,.71-.85,.93-1.22l.18-.14c.07,.04,.16,.09,.16,.13-.19,.44-.38,.85-.56,1.26-.11,.63-.22,1.27-.32,1.9l-.17,.97c-.05,.28-.07,.5-.07,.65-.03,.09-.08,.21-.15,.34-.15,.42-.25,.99-.32,1.68-.06,.69-.1,1.51-.1,2.45,0,.87,.18,1.54,.54,1.97,.36,.44,.92,.66,1.65,.66,.33,0,.69-.1,1.08-.29,.38-.19,.77-.5,1.16-.93,.29-.31,.58-.63,.87-.95,.28-.32,.57-.65,.86-.97,.29-.29,.56-.55,.8-.76,.25-.22,.45-.42,.6-.59,.41-.28,.76-.54,1.05-.78,.23-.2,.41-.37,.57-.56v.03s.09-.11,.09-.11c.19-.24,.37-.42,.52-.54,.15-.11,.28-.17,.4-.17,.14,0,.27,.08,.38,.23,.13,.16,.26,.43,.4,.78,.18,.44,.35,.82,.51,1.14,.16,.32,.33,.57,.5,.73,.31,.35,.71,.61,1.18,.8,.47,.18,1.01,.27,1.62,.27,.45,0,.86-.04,1.2-.11,.34-.07,.64-.2,.87-.35,.64,0,1.36-.24,2.12-.7,.73-.44,1.54-1.11,2.44-2.03l.12,.31c0,.31-.14,.81-.41,1.47-.28,.68-.42,1.22-.42,1.6,0,.83,.2,1.45,.6,1.84,.4,.39,1.02,.59,1.85,.59,.47,0,1.02-.2,1.64-.58,.62-.38,1.3-.99,2.03-1.8,.54-.58,1.07-1.18,1.61-1.79,.54-.61,1.06-1.21,1.59-1.82,.23-.33,.41-.61,.54-.85,.13-.24,.22-.44,.27-.59,.24-.37,.48-.68,.71-.92,.23-.24,.44-.42,.65-.56,.06-.07,.12-.18,.14-.32,0-.01,.01-.02,.02-.03,.26,.34,.45,.67,.56,.96,.05,.16,.1,.34,.15,.53l.17,.68c.31,1.27,.86,2.24,1.63,2.88s1.79,.96,3.01,.96c.56,0,1.04-.07,1.42-.21,.39-.14,.73-.38,.99-.69,.44-.52,.79-.92,1.06-1.2,.1-.11,.4-.42,.54-.57-.12-.33-.26-.68-.43-1.05l-.3-.65-.26-.41s-.03-.07-.05-.11c0,0,0,0-.01,.01l-.04-.06c-.32,.35-.64,.61-.94,.78-.3,.16-.61,.25-.9,.25-.26,0-.51-.07-.74-.2-.23-.13-.43-.35-.61-.64-.29-.45-.53-.88-.71-1.27-.19-.39-.32-.73-.4-1-.08-.25-.13-.6-.14-1.03-.02-.44-.02-.96-.03-1.56l1.56-5.63-.08-.49c.15-.23,.27-.43,.38-.61,.1-.17,.19-.3,.26-.41,.01-.05,.06-.2,.25-.59l.62-1.32c.23-.52,.4-.92,.51-1.21,.12-.3,.18-.49,.18-.6v-.43c0-.13,.02-.24,.03-.31l.35-.47c.03-.21,.07-.39,.1-.54,.03-.16,.05-.3,.03-.37,.16-.18,.3-.38,.41-.6,.11-.22,.17-.45,.19-.68Zm-8.46,12.01c0,.55-.24,1.3-.72,2.22-.48,.92-1.23,2.06-2.23,3.38-.96,1.24-1.81,2.22-2.51,2.93-.69,.69-1.28,1.12-1.69,1.27-.11-.1-.17-.19-.18-.24,.19-.48,.38-.9,.55-1.23l1.31-2.18c.35-.59,.64-1,.84-1.24,.73-.82,1.3-1.52,1.71-2.08,.41-.57,.67-.98,.77-1.22,.49-.39,.91-.75,1.27-1.07,.32-.29,.6-.55,.83-.78,.04,.1,.05,.18,.05,.24Zm-16.35-.46c0,.22-.05,.44-.14,.65-.09,.22-.24,.44-.43,.66l-.5,.55c-.17,.18-.34,.36-.53,.53l-.32,.52c-.1,.16-.22,.25-.38,.25s-.19-.03-.21-.04c-.02-.02-.04-.06-.04-.16,0-.42,.3-1.1,.89-2.02,.58-.91,1.05-1.37,1.38-1.37,.09,0,.15,.03,.2,.1,.05,.08,.07,.18,.07,.31Zm-24.85-4.79l-.15-.15c0-.16,.04-.37,.11-.63,.07-.27,.17-.58,.3-.93,.16-.42,.29-.77,.39-1.05,.1-.28,.16-.51,.17-.66,.08-.23,.14-.4,.18-.53,.04-.12,.1-.13,.14-.13,.09,0,.15,.03,.18,.09,.03,.05,.06,.15,.06,.38,0,.15-.04,.35-.12,.59-.08,.24-.2,.53-.36,.87-.2,.38-.35,.71-.47,1-.12,.3-.18,.57-.18,.78l-.25,.35-.02,.02Z"/>
    <path class="cls-1" d="M207.19,216.13c0-.26-.07-.47-.21-.62-.14-.15-.36-.23-.66-.23s-.55,.11-.78,.32c-.22,.21-.39,.53-.5,.94-.08,.29-.16,.6-.22,.92l-.19,.97,.2,.68c-.16,.37-.34,.75-.52,1.13-.19,.38-.35,.76-.47,1.13-.21,.45-.38,.89-.5,1.3-.12,.41-.22,.78-.27,1.11-.99,1.99-1.81,3.5-2.46,4.48-.8,1.21-1.21,1.46-1.36,1.49-.21-.22-.34-.43-.4-.63-.05-.19-.08-.35-.08-.5,0-.14,0-.26,.01-.36,.11-1.65,.21-2.87,.28-3.65,.06-.61,.09-.94,.1-1l-.04-.13-.1-.24c-.05-.11-.08-.23-.12-.35,.13-.62,.25-1.22,.37-1.81,0-.2,.02-.37,.06-.49,.04-.11,.08-.19,.13-.23,.19-.12,.33-.27,.44-.44,.1-.17,.15-.37,.15-.6,0-.55-.1-.97-.29-1.26-.2-.3-.53-.45-.97-.45-1.06,0-2.39,1.8-4.06,5.52-2.12,4.73-2.73,5.43-2.86,5.45l-.23-.18s-.07-.14-.13-.68c-.05-.41-.11-.99-.17-1.74l-.12-1.73c-.03-.45-.05-.79-.05-1.02,0-.52,.04-1.27,.12-2.22,.08-.98,.12-1.68,.12-2.14,0-.26-.07-.46-.2-.59-.13-.13-.33-.19-.57-.19-.65,0-1.29,.31-1.89,.92-.6,.6-1.2,1.55-1.8,2.82-.18,.37-.41,.78-.69,1.23-.28,.45-.61,.93-.99,1.43-.43,.62-.83,1.13-1.18,1.51-.34,.37-.64,.63-.9,.78-.41,.24-.74,.46-.99,.64-.26,.18-.42,.31-.5,.45,.21,.44,.4,.84,.56,1.2,.12,.28,.25,.55,.4,.82,.02,.06,.06,.13,.08,.19,0,0,.02-.01,.02-.02,.01,.02,.02,.04,.04,.06,.21-.27,.56-.57,1.06-.9,.51-.33,.87-.63,1.09-.88,.28-.32,.52-.61,.74-.85l.55-.61c.11-.13,.23-.25,.36-.36,.1-.09,.2-.18,.27-.28,.02-.01,.04-.03,.06-.04l1.14,6.91c.35,2.15,.51,2.52,.6,2.6l.43,.45c.14,.07,.25,.11,.35,.12,.09,0,.19,.01,.29,.01,.35,0,.67-.06,.94-.18,.27-.12,.52-.3,.73-.55,.13-.29,.27-.58,.42-.86,.15-.29,.3-.58,.43-.86l.8-1.53c.13-.23,.23-.46,.29-.67,.06-.21,.1-.41,.1-.54,.39-.66,.74-1.28,1.05-1.85,.25-.53,.47-.91,.64-1.13,.19-.25,.28-.3,.27-.33l.1,.14c0,.14-.04,.34-.12,.61-.08,.28-.12,.52-.12,.73,0,1.88,.16,3.31,.48,4.26,.33,.97,.81,1.46,1.44,1.46,.48,0,.96-.14,1.42-.41,.46-.27,.92-.67,1.36-1.2,.06-.08,.25-.35,.57-.79,.32-.45,.74-1.08,1.28-1.91,.82-1.31,1.45-2.51,1.85-3.55,.53-.83,1.02-1.71,1.45-2.64,.43-.92,.82-1.94,1.16-3.02,.31-.95,.55-1.89,.71-2.78,.16-.89,.24-1.76,.24-2.59Z"/>
    <path class="cls-1" d="M212.23,215.3c.24,0,.49,.01,.73,.04,.25,.02,.84,.09,.84,.09,.11,0,.28-.05,.5-.14,.26-.11,.58-.29,.95-.55,.36-.21,.67-.46,.93-.73s.46-.6,.61-.96c.07-.16,.16-.43,.28-.81,.12-.37,.26-.85,.43-1.44l.24-1.16c0-.33-.1-.58-.3-.76-.2-.17-.51-.26-.93-.26-.35,0-.65,.04-.92,.11-.26,.07-.48,.17-.67,.3-.37,.44-.7,.83-.93,1.14-.48,.05-1.01,.45-1.62,1.21-.61,.76-.9,1.37-.9,1.88,0,.56,.06,1.01,.19,1.34,.13,.34,.31,.57,.56,.7Z"/>
    <path class="cls-1" d="M251.54,201.3h0c-.11,.03-.21,.05-.26,.08-.1-.17-.27-.35-.55-.57-.25,0-.59,.11-1.01,.34-.41,.22-.9,.57-1.45,1.04-.61,.52-1.21,1.1-1.79,1.69-.59,.61-1.18,1.27-1.77,1.97-.32,.42-.74,.98-1.24,1.68-.5,.7-1.09,1.53-1.76,2.51-.26,.47-.49,.88-.69,1.23-.21,.35-.36,.66-.48,.92-.11,.29-.23,.54-.34,.76-.11,.22-.22,.39-.34,.54-.36,.54-.69,1.14-.98,1.81-.29,.67-.54,1.42-.73,2.22-.19,.62-.38,1.17-.55,1.66-.17,.49-.33,.9-.48,1.23-.31,1.09-.56,2.05-.76,2.88-.19,.83-.36,1.52-.51,2.08-.01,.16-.1,.36-.25,.57-.16,.22-.37,.46-.63,.7-.11,.13-.26,.28-.46,.46-.18,.17-.44,.4-.77,.74h0c-1.09,.91-1.93,1.61-2.54,2.08-.8,.62-.98,.69-1.02,.69-.14,0-.24-.05-.31-.16-.07-.12-.11-.3-.11-.55,0-.29,.07-.86,.21-1.69,.14-.84,.34-1.95,.6-3.3,.42-1.7,.81-3.18,1.15-4.43,.34-1.25,.65-2.28,.93-3.09,.08-.31,.15-.58,.2-.82l.03-.13,.04-.41,1.64-.34c.23-.02,.39-.31,.49-.87,.09-.53,.13-1.29,.13-2.26,0-.23-.02-.43-.06-.59-.04-.17-.12-.29-.23-.36-.11-.09-.19-.18-.24-.24-.05-.07-.1-.14-.12-.16,.03-.3,.16-.76,.37-1.36,.22-.61,.33-1.12,.33-1.5,0-.49-.11-.86-.33-1.12-.23-.26-.55-.39-.95-.39-.77,0-1.46,.76-2.12,2.33-.63,1.49-1.22,2.28-1.73,2.34l-.84-.24-.67,.13c-.2,.04-.41,.08-.59,.14-.17-.05-.4-.09-.72-.12-.3-.03-.65-.05-1.07-.05h-.07c-.21,.05-.44,.1-.65,.15-.31-.07-.67-.12-1.07-.16-.4-.04-.83-.06-1.29-.06-.48,0-.85,.29-1.08,.87-.22,.56-.33,1.37-.33,2.41,0,.16,.06,.31,.18,.43,.11,.11,.27,.2,.47,.27,.13,.07,.27,.13,.41,.18,.14,.06,.28,.12,.48,.21,.13,0,.34,0,.64,.02,.3,.02,.52,.02,.65,.02h3.04c.12,0,.29-.03,.52-.09,.21-.05,.36-.08,.46-.08s.16,.02,.19,.05c.03,.04,.05,.09,.06,.14-.19,.44-.37,.8-.53,1.09-.16,.29-.31,.52-.44,.71-1.06,1.91-2.15,3.63-3.24,5.11-1.09,1.47-2.22,2.76-3.37,3.83l-.55,.68c-.15,.2-.28,.36-.38,.5l-.05,.18h0s-.79,.63-.79,.63c-.27,.22-.52,.43-.77,.64-.32,.25-.63,.43-.93,.54-.3,.1-.59,.15-.88,.15-.23,0-.43-.04-.58-.1-.15-.07-.26-.17-.34-.33-.04-.05-.14-.26-.35-1.1-.16-.66-.3-1.15-.41-1.46-.07-.52-.15-1.04-.24-1.55-.1-.51-.2-1.02-.32-1.52-.13-.58-.4-1.03-.81-1.32-.4-.29-.89-.44-1.48-.44-.22,0-.45,.06-.66,.18-.22,.12-.42,.31-.59,.58-.41,.59-1.18,1.38-2.27,2.34-1.1,.96-1.88,1.75-2.33,2.38l-.06,.22-.14,.27c.06,.04,.11,.1,.15,.17,.05,.08,.09,.16,.12,.25,.13,.39,.26,.73,.38,1.03,.1,.24,.2,.45,.33,.64,0,.02,.03,.06,.03,.09,0,0,0,0,.01-.01,.02,.02,.02,.04,.04,.06,.63-.69,1.17-1.22,1.6-1.56,.42-.34,.76-.51,1-.51,.04,0,.14,.03,.31,.25,.14,.18,.31,.46,.51,.83,.16,.24,.31,.46,.44,.64,.13,.17,.22,.33,.28,.44,.54,1.58,1.03,2.53,1.48,2.88,.46,.35,1.41,.53,2.92,.53,.25,0,.62-.12,1.1-.36,.47-.24,1.05-.6,1.71-1.09,.6-.44,1.12-.82,1.55-1.16,.42-.33,.74-.61,1.01-.93v.02c.17-.24,.32-.44,.45-.6,.13-.16,.22-.29,.26-.36,.86-.81,1.7-1.61,2.53-2.41,.53-.47,1-.92,1.39-1.36,.39-.43,.71-.85,.93-1.22l.18-.14c.07,.04,.16,.09,.16,.13-.19,.44-.38,.85-.57,1.26-.11,.63-.22,1.27-.32,1.9l-.17,.97c-.05,.28-.08,.5-.07,.65-.03,.09-.08,.21-.15,.34-.15,.43-.26,1-.32,1.68-.07,.69-.1,1.51-.1,2.45,0,.87,.18,1.53,.54,1.97,.36,.44,.92,.66,1.65,.66,.33,0,.69-.1,1.08-.29,.38-.19,.77-.5,1.16-.93,.29-.31,.58-.63,.87-.95,.28-.32,.57-.65,.86-.97,.29-.29,.56-.55,.8-.76,.25-.22,.45-.42,.6-.59,.41-.28,.76-.54,1.05-.78,.27-.22,.47-.42,.64-.65,0,0,0,.01,0,.02,.15-.1,.27-.19,.35-.28s.15-.16,.15-.2c.08,0,.13,.01,.16,.04,.03,.03,.04,.07,.04,.12-.07,.24-.12,.47-.17,.69l-.05,.32c-.02,.12-.03,.25-.03,.4,0,.47,.05,1.06,.16,1.73,.11,.67,.26,1.47,.45,2.38,.07,.3,.29,.52,.66,.67,.35,.14,.85,.21,1.47,.21,.31,0,.67-.17,1.09-.5,.41-.33,.89-.82,1.42-1.47,.46-.59,.85-1.12,1.17-1.61,.32-.48,.58-.92,.75-1.29,.27-.37,.55-.73,.84-1.07,.28-.34,.56-.67,.76-.97h.15s.22,.13,.92,1.34c.55,.95,1.35,1.43,2.36,1.43,.65,0,1.23-.04,1.71-.11,.5-.08,.88-.19,1.15-.34,.39-.24,.78-.49,1.18-.73s.79-.49,1.21-.84c-.18-.42-.35-.82-.52-1.19-.17-.37-.32-.72-.53-1.09-.68,.15-1.27,.26-1.76,.34-.41,0-.76-.11-1.04-.33-.29-.22-.54-.57-.74-1.03-.02-.08-.09-.35-.22-.8-.13-.45-.3-1.08-.51-1.91-.12-.46-.27-.83-.45-1.09-.19-.28-.41-.42-.64-.42-.09,0-.2,.03-.34,.08l-.44,.17-.85,.37c-.26,.12-.57,.47-.95,1.06-.37,.57-.8,1.41-1.27,2.48-.53,1.17-1.01,2.14-1.42,2.89-.41,.73-.77,1.24-1.08,1.52-.16,.19-.32,.36-.47,.5-.16,.15-.28,.28-.3,.37-.06,0-.12-.02-.16-.16-.04-.13-.06-.33-.06-.6,0-.69,.08-1.51,.23-2.46,.15-.94,.39-2.03,.68-3.22,.81-1.02,1.53-1.9,2.14-2.65s1.12-1.37,1.51-1.87c.78-.99,1.41-1.82,1.86-2.46,.46-.64,.72-1.09,.81-1.33,.32-.36,.6-.67,.84-.94,.24-.28,.41-.53,.5-.75,.39-.6,.71-1.14,.96-1.6,.25-.46,.46-.85,.62-1.15,.34-.55,.63-1.06,.88-1.51,.24-.45,.45-.82,.61-1.1,.27-.74,.54-1.4,.78-1.96s.47-1.03,.68-1.43c.05-.13,.09-.28,.12-.45,.03-.16,.06-.36,.07-.58,.03-.18,.07-.35,.12-.53,.04-.17,.12-.3,.24-.44,.08-.34,.15-.63,.2-.87,.05-.24,.07-.44,.07-.59,0-.68-.1-1.19-.3-1.54-.21-.36-.53-.54-1-.54Zm-10.21,18.66l-.11-.04,.33-.83c.19-.47,.43-1.14,.72-2,.31-.79,.62-1.65,.95-2.58,0-.2,.04-.39,.13-.58,.08-.19,.22-.38,.42-.57l1.34-2.03c.45-.69,.92-1.38,1.39-2.08,.82-1.24,1.51-2.19,2.04-2.83,.68-.81,.93-.94,1.02-.94,.1,0,.17,.02,.19,.07,.03,.06,.05,.15,.05,.25,0,.18-.1,.52-.3,1-.2,.49-.51,1.13-.91,1.94-.71,1.48-1.38,2.81-1.99,3.95-.62,1.14-1.22,2.09-1.8,2.83-.58,.79-1.11,1.49-1.57,2.08-.46,.59-.85,1.07-1.18,1.45-.22,.32-.49,.62-.72,.91,0,0,0,0,0,0Z"/>
    <path class="cls-1" d="M314.21,217.93c0-.19-.04-.34-.11-.44-.08-.11-.21-.16-.4-.16-.59,0-1.06,.24-1.41,.72-.34,.47-.58,1.17-.73,2.09-.06,.51-.31,1.29-.73,2.31-.42,1.02-1.04,2.35-1.85,3.95-.81,1.64-1.5,2.89-2.06,3.7-.69,.99-1.06,1.2-1.26,1.2-.11,0-.33-.18-.51-1.36-.14-.94-.22-2.39-.22-4.29,.05-.18,.09-.35,.12-.55-.05-.15-.09-.27-.12-.39-.03-.12-.07-.22-.1-.25,.1-.37,.16-.88,.19-1.49,.02-.61,.04-1.37,.04-2.28,0-.63-.05-1.09-.16-1.4-.12-.33-.3-.5-.54-.5-.12,0-.37,.07-1.26,.68-.87,.6-1.03,.75-1.07,.82-.32,.74-.62,1.4-.89,1.97-.27,.57-.5,1.04-.69,1.41-.13,.31-.34,.66-.64,1.04-.29,.39-.67,.82-1.13,1.27-.44,.47-.78,.87-1.01,1.19-.22,.29-.35,.5-.43,.68-.17,.14-.33,.26-.45,.33-.13,.07-.25,.11-.37,.11-.11,0-.2-.04-.27-.11-.07-.08-.14-.22-.22-.35,.17-.15,.35-.39,.54-.72,.19-.33,.37-.74,.53-1.23,.15-.44,.25-.85,.32-1.23,.07-.38,.1-.71,.1-.99,0-1.47-.3-2.59-.9-3.32-.6-.73-1.52-1.11-2.72-1.11-.12,0-.39,.06-.8,.2-.41,.13-.97,.33-1.6,.64l-.14-.15c.18-.37,.35-.75,.52-1.16-.02-.19-.13-.33-.34-.43-.19-.09-.48-.14-.85-.14-.33,0-.65,.07-.93,.2-.28,.13-.55,.31-.82,.55-.23,.23-.45,.46-.67,.71-.22,.24-.45,.49-.69,.73-.19,.18-.4,.36-.63,.54-.23,.19-.46,.39-.68,.6-.27,.23-.49,.47-.68,.7-.19,.23-.33,.45-.39,.61-.7,.62-1.28,1.14-1.75,1.57-.47,.43-.82,.78-1.04,1.05l-1.89,1.31c-.16,.23-.31,.44-.43,.62-.11,.16-.21,.3-.32,.46,0,0,0-.01,0-.02-.11,.14-.25,.28-.4,.42-.16,.14-.34,.27-.58,.42-.09,.19-.24,.4-.4,.6-.13,.05-.26,.1-.38,.15-.12,.05-.24,.08-.38,.1-1.13,.44-2.23,.77-3.26,.99-1.04,.23-2.08,.34-3.09,.34-.2,0-.34-.13-.45-.39-.11-.28-.17-.69-.17-1.22,0-.58,.09-1.45,.28-2.61,.19-1.16,.47-2.64,.84-4.39,.08-.44,.14-.82,.18-1.15l.11-.84c.03-.08,.1-.31,.21-.69,.11-.38,.25-.9,.42-1.58,.16-.5,.29-.94,.37-1.31,.08-.37,.12-.67,.12-.9,0-.53,.18-1.31,.52-2.33,.35-1.03,.53-1.9,.53-2.59,0-.21,.04-.57,.11-1.09l.27-1.86c.16-.28,.29-.51,.4-.73,.05-.28,.09-.58,.12-.9s.06-.68,.07-1.06l.13-.58c.06-.24,.12-.54,.18-.87,.1-.33,.16-.62,.19-.88,.02-.26,.04-.48,.04-.68,0-.63-.11-1.1-.32-1.42-.22-.32-.56-.48-1.02-.48-.09,0-.24,.03-.48,.09-.23,.06-.49,.14-.79,.26-.36,.16-.67,.35-.92,.56-.25,.21-.44,.45-.58,.72l-.37,.91c-.11,.28-.24,.59-.39,.91-.29,.66-.54,1.26-.76,1.78-.21,.52-.37,.96-.47,1.33-.08,.52-.18,1.05-.3,1.6-.12,.55-.24,1.09-.35,1.63-.11,.45-.23,.92-.34,1.4-.11,.48-.23,.95-.36,1.42-.16,.58-.28,1.13-.34,1.61-.06,.49-.1,.93-.1,1.32,0,.3,.13,.53,.39,.68,.21,.13,.32,.32,.32,.61,0,.62-.16,1.75-.47,3.36-.32,1.64-.48,2.66-.48,3.12,0,.13,.02,.3,.05,.51,.03,.2,.05,.35,.05,.46,0,.51-.2,1.55-.61,3.1-.41,1.56-.61,2.71-.61,3.43,0,1.02,.05,1.81,.14,2.35,.09,.56,.24,.9,.46,1.02l.63,.36c.13,.08,.26,.17,.4,.27,.14,.1,.28,.2,.43,.3,.12,.07,.27,.12,.44,.14,.16,.03,.37,.04,.62,.04,.29,0,.62-.01,.97-.04,.35-.02,.71-.09,1.06-.18l1.57-.21c.55-.07,1.07-.23,1.54-.46,.42-.21,.89-.42,1.41-.64,.52-.22,1.07-.44,1.65-.67,.41-.15,.77-.33,1.09-.54,.31-.22,.58-.48,.77-.77,.21-.34,.41-.68,.59-1,.18-.32,.37-.63,.59-.96,0,0,0,0,0-.01,.12-.14,.23-.28,.29-.4,.06-.12,.12-.22,.15-.27l1.31-1.04c.41-.33,.52-.35,.54-.35,.11,0,.19,.03,.26,.09,.06,.06,.09,.13,.09,.23,0,.1-.09,.48-.27,1.11-.18,.64-.27,1.17-.27,1.56,0,.97,.38,1.86,1.14,2.65,.76,.79,1.62,1.19,2.56,1.19,.15,0,.35-.03,.59-.1,.23-.06,.38-.09,.46-.09,.28,0,.6-.05,.93-.16,.33-.11,.71-.26,1.11-.45,.7-.3,1.35-.67,1.93-1.12,.52-.4,.97-.85,1.27-1.34,.04-.04,.08-.08,.11-.13,.15,.32,.35,.58,.59,.76,.25,.19,.58,.28,.97,.28,.33,0,.67-.07,1.01-.21,.34-.14,.7-.37,1.07-.68,.31-.23,.6-.46,.88-.71l.24-.21,.58-.58s0,.02,.01,.03c.89-.97,1.58-1.71,2.07-2.21,.6-.61,.81-.78,.81-.81l.21,.06-.17,.61c.04,.1,.07,.31,.08,.63,0,.32,.01,.75,.01,1.27,.03,.39,.09,.75,.17,1.07,.08,.32,.16,.58,.24,.74-.02,.18-.05,.38-.1,.64,0,1.34,.23,2.36,.69,3.03,.47,.68,1.16,1.03,2.05,1.03,.3,0,.57-.06,.8-.19,.23-.13,.43-.31,.62-.54,.16-.19,.33-.39,.51-.58,.18-.2,.35-.4,.51-.6,.78-.7,1.36-1.33,1.74-1.87,.38-.55,.57-1.04,.55-1.39,.2-.22,.64-.95,1.36-2.25,.72-1.3,1.08-2.04,1.11-2.26,.08-.42,.19-.85,.33-1.27,.42-.66,.74-1.28,.94-1.84,.2-.56,.31-1.06,.3-1.48,.36-.67,.63-1.35,.8-2.02,.17-.67,.26-1.35,.26-2Zm-27.04,11.31c.08-.35,.21-.78,.39-1.29,.18-.56,.35-.99,.53-1.29,.16-.27,.32-.43,.46-.44,.26-.05,.5-.13,.71-.24,.21-.11,.41-.27,.6-.47,.29-.44,.55-.84,.78-1.22,.14-.22,.29-.41,.44-.56,.17-.17,.27-.22,.31-.23,.51,.06,.9,.12,1.17,.18,.33,.07,.46,.12,.52,.15,.11,.06,.23,.22,.36,.49,.13,.28,.27,.67,.41,1.11l-.44,1.39c-.08,.32-.16,.59-.24,.81-.08,.21-.18,.35-.31,.45l-.73,.88c-.55,.82-1.13,1.44-1.74,1.84-.61,.4-1.29,.61-2.02,.61-.45,0-.78-.11-1-.32-.21-.21-.32-.54-.32-.97,0-.24,.04-.54,.12-.88Z"/>
    <path class="cls-1" d="M325.62,228s-.03-.07-.05-.11c0,0,0,0,0,0-.01-.02-.02-.04-.03-.06-.17,.14-.35,.26-.52,.34s-.31,.16-.39,.21c-.4,.22-.86,.42-1.37,.58-.51,.16-1.09,.27-1.69,.31-.38-.08-.72-.17-1-.27-.27-.09-.48-.19-.61-.29-.21-.12-.38-.31-.49-.55-.12-.25-.18-.54-.18-.87,0-.18,.04-.36,.11-.52,.08-.16,.17-.3,.28-.4,1.34-1.31,2.42-2.49,3.22-3.51,.8-1.02,1.31-1.94,1.54-2.72l.22-.78c.11-.39,.2-.67,.25-.85,.04-.11,.05-.14,.08-.21-.06-.37-.11-.71-.16-1.03-.1-.38-.2-.69-.31-.96-.11-.27-.22-.47-.34-.6-.17-.2-.39-.35-.65-.44-.26-.08-.6-.12-1.01-.12-.3,0-.57,.02-.82,.07s-.47,.11-.69,.18c-.21,.16-.42,.31-.63,.43-.22,.13-.41,.27-.6,.43-.37,.45-.75,.9-1.12,1.35-.37,.44-.73,.85-1.08,1.24-.4,.66-.73,1.27-.99,1.81-.25,.54-.45,.98-.6,1.34-.13,.36-.25,.69-.35,1-.11,.31-.18,.58-.23,.82-.02,.32-.05,.64-.1,.95l-.06,.42-.06,.5c-.47,.38-.87,.74-1.18,1.09-.31,.35-.57,.7-.76,1.11,.26,.54,.47,.98,.63,1.34,.16,.35,.27,.65,.34,.89l.04,.13,.09-.11c.19-.24,.37-.42,.52-.54,.15-.11,.28-.17,.39-.17,.14,0,.27,.08,.38,.23,.12,.16,.26,.43,.4,.78,.18,.44,.35,.82,.51,1.14,.16,.32,.33,.57,.5,.73,.31,.35,.71,.61,1.18,.8,.47,.18,1.01,.27,1.62,.27,.45,0,.86-.04,1.19-.11,.34-.08,.65-.2,.87-.35,.64,0,1.36-.24,2.12-.7,.76-.46,1.61-1.16,2.55-2.14-.1-.28-.23-.6-.39-.98-.14-.33-.32-.71-.58-1.13Zm-4.33-7.85c.05,.08,.07,.19,.07,.31,0,.22-.05,.44-.14,.65-.09,.22-.24,.44-.42,.66l-.5,.55c-.17,.18-.34,.36-.53,.53l-.32,.52c-.1,.16-.22,.25-.38,.25s-.2-.03-.21-.04c-.03-.03-.04-.08-.04-.16,0-.42,.3-1.1,.89-2.02,.73-1.13,1.15-1.37,1.38-1.37,.09,0,.15,.03,.2,.1Z"/>
    <path class="cls-1" d="M400.61,208.91c.03-.32,.07-.6,.1-.82,.03-.22,.07-.39,.12-.49,.26-.55,.44-1.16,.54-1.8,.1-.63,.15-1.31,.15-2.01,0-.46-.07-.79-.22-1.03-.15-.25-.39-.37-.7-.37-.38,0-.76,.11-1.11,.31-.35,.21-.67,.52-.95,.94-.44,.81-.82,1.55-1.14,2.22-.65,1.27-1.21,2.39-1.68,3.37-.47,.97-.85,1.84-1.12,2.57-.05,.11-.12,.33-.21,.65-.09,.32-.22,.73-.38,1.23-.11,.4-.23,.75-.35,1.05-.12,.3-.24,.55-.38,.79,0,.33-.05,.6-.15,.81-.1,.2-.25,.35-.44,.44-.47,.21-.85,.39-1.15,.55-.3,.15-.5,.27-.62,.36-.78,.68-1.4,1.21-1.85,1.59-.46,.38-.76,.65-.91,.8-.34,.39-.7,.78-1.09,1.18-.39,.4-.78,.78-1.17,1.16-.18,.17-.34,.32-.5,.43-.17,.12-.3,.23-.38,.33-.41,.44-.76,.83-1.05,1.17-.3,.35-.5,.61-.59,.77l-.31,.19c-.47,.19-.85,.36-1.12,.49-.29,.14-.47,.24-.56,.33-.1,.11-.25,.25-.49,.47-.21,.2-.47,.49-.77,.87l-.06,.22-.12,.18h0c-.14,.14-.29,.26-.45,.34-.16,.08-.34,.11-.54,.11-.26,0-.48-.11-.69-.34-.21-.23-.41-.6-.58-1.09-.29-.86-.6-1.79-.93-2.81-.28-.53-.62-.92-1.02-1.17-.4-.25-.86-.38-1.38-.38-.27,0-.58,.07-.94,.2-.35,.13-.75,.31-1.19,.54-.39,.24-.73,.48-1.03,.71-.29,.23-.55,.45-.76,.67-.15,.16-.27,.32-.38,.47-.1,.14-.19,.24-.24,.3-.29,.23-.56,.48-.8,.75-.23,.27-.43,.55-.56,.81-.37,.33-.7,.62-.96,.89s-.48,.54-.6,.77l-.25,.29c-.07,.08-.13,.13-.12,.19,0,0,0,0,0,0-.13-.16-.15-.26-.15-.32,0-.08,.02-.2,.05-.35,.03-.15,.09-.34,.19-.54l.42-.93c.58-1.73,1.02-3.14,1.29-4.19,.28-1.06,.42-1.78,.42-2.16,0-.71-.14-1.26-.43-1.64-.29-.38-.74-.58-1.34-.58s-1.16,.13-1.69,.4c-.53,.26-1.02,.67-1.48,1.21-.54,.6-1,1.11-1.39,1.54s-.71,.78-.99,1.07l-1.52,1.73c-.42,.48-.78,.88-1.07,1.2-.32,.32-.61,.61-.87,.85-.26,.24-.47,.43-.63,.56l-.39,.51c-.1,.13-.17,.25-.24,.4-.1,.09-.2,.18-.3,.25-.12,.08-.21,.13-.3,.18-.11,.13-.22,.26-.33,.39l-.32,.41c-.14,.13-.28,.23-.41,.31-.13,.08-.26,.11-.39,.11-.47,0-.83-.19-1.12-.59s-.43-.85-.41-1.36c0-.75,.02-1.52,.05-2.34-.03-.55-.14-.96-.33-1.24-.19-.29-.47-.43-.84-.43-.56,0-1.18,.22-1.84,.66-.65,.43-1.36,1.1-2.09,1.98-.15,.1-.27,.18-.39,.24l-.34,.2c-.15,.1-.4,.31-.75,.63l-1.35,1.23c-.47,.45-.9,.82-1.28,1.09-.38,.27-.75,.46-1.02,.6l-.17-.14c.47-.66,.85-1.2,1.14-1.61,.29-.4,.49-.66,.6-.77,.93-.81,1.64-1.48,2.18-2.05,.54-.57,.91-1.04,1.05-1.38,.38-.28,.68-.52,.91-.73s.38-.36,.47-.45c.11-.16,.25-.35,.4-.54,.51-.38,.95-.76,1.32-1.14,.38-.39,.7-.75,.94-1.08,.47-.35,.91-.68,1.31-.97,.27-.18,.47-.41,.6-.69,.12-.27,.19-.58,.19-.93s-.11-.62-.33-.81c-.21-.19-.54-.29-.98-.29-.77,0-1.73,.36-2.85,1.06-1.11,.69-2.42,1.75-3.89,3.15-.32,.3-.62,.55-.89,.73-.27,.19-.5,.33-.69,.43-.37,.33-.68,.61-.93,.85s-.43,.45-.54,.59c-.25,.12-.47,.25-.66,.4-.19,.15-.35,.34-.47,.56-.14,.26-.27,.45-.38,.59-.11,.14-.21,.24-.28,.32l-2.24,1.48c-.16,.27-.3,.5-.42,.69-.12,.18-.21,.31-.28,.45,.15,.32,.28,.63,.4,.91l.33,.77c.06,.11,.12,.21,.15,.3,.04,.08,.06,.15,.06,.23,0,.13-.02,.29-.03,.46-.38,.38-.66,.77-.85,1.18-.19,.41-.29,.84-.29,1.28,0,.81,.19,1.42,.58,1.81,.39,.39,.98,.59,1.78,.59,.12,0,.31-.05,.56-.16,.24-.11,.54-.25,.88-.43,.54-.29,1.02-.58,1.45-.85,.44-.28,.82-.56,1.14-.84,.16-.16,.44-.43,.83-.8,.39-.37,.87-.85,1.43-1.43,.42-.34,.79-.63,1.11-.87l.8-.62c.13-.14,.24-.26,.34-.35,.1-.09,.17-.17,.16-.25,0,0,0,0,0,0,.12,.15,.2,.3,.24,.44,.04,.15,.06,.29,.06,.44,.1,1.23,.44,2.16,1.02,2.77,.58,.61,1.41,.92,2.48,.92,.46,0,.93-.1,1.39-.29,.46-.19,.94-.47,1.43-.85,.41-.33,.8-.68,1.16-1.04s.71-.7,1.09-1.09c0,.01,.01,.02,.02,.03,.15-.17,.26-.32,.33-.45l.13-.27c.28-.26,.52-.49,.74-.71,.22-.21,.4-.37,.56-.47,.1-.05,.29-.22,.58-.5,.28-.27,.64-.66,1.1-1.15,.37-.42,.69-.72,.95-.91,.25-.19,.46-.28,.6-.28,.16,0,.28,.03,.35,.08,.06,.05,.09,.12,.09,.21,0,.11-.02,.24-.05,.39-.03,.15-.09,.33-.17,.54-.08,.23-.15,.41-.2,.54-.06,.15-.09,.26-.09,.34-.4,1.36-.76,2.55-1.06,3.57-.31,1.02-.58,1.87-.83,2.58,.05,.46,.1,.91,.16,1.35,.06,.48,.44,.73,1.13,.73,.33,0,.63-.04,.91-.11,.28-.08,.53-.21,.75-.39,.21-.2,.42-.39,.63-.6,.21-.2,.42-.41,.63-.62,.83-.84,1.52-1.57,2.07-2.19,.55-.62,.95-1.13,1.18-1.52,.11-.2,.32-.37,.63-.53,.33-.17,.85-.57,1.6-1.23,.34-.31,.66-.56,.95-.75,.29-.19,.6-.34,.85-.43l.19,.05c.36,.47,.67,.88,.94,1.23,.27,.35,.51,.64,.71,.83,.26,.52,.49,.96,.68,1.3,.2,.36,.36,.6,.49,.73,.25,.33,.55,.58,.9,.75,.35,.17,.72,.25,1.1,.25,.33,0,.67-.07,1-.21,.33-.14,.69-.39,1.06-.73l.85-.71,.74-.67,.12,.3c0,.31-.14,.81-.41,1.47-.28,.69-.42,1.21-.42,1.6,0,.83,.2,1.45,.6,1.84,.4,.39,1.02,.59,1.85,.59,.47,0,1.02-.2,1.64-.58,.62-.38,1.3-.99,2.03-1.8,.54-.58,1.07-1.18,1.61-1.79,.54-.61,1.06-1.21,1.59-1.82,.23-.33,.41-.61,.54-.85,.13-.24,.22-.44,.27-.59,.24-.37,.48-.68,.71-.92,.23-.24,.44-.42,.65-.56,.06-.07,.12-.18,.14-.32,0-.01,.01-.02,.02-.03,.26,.34,.45,.67,.56,.96,.05,.16,.1,.34,.15,.53l.17,.68c.31,1.27,.86,2.24,1.63,2.88,.77,.64,1.79,.96,3.01,.96,.56,0,1.04-.07,1.42-.21,.39-.14,.73-.38,.99-.69,.44-.52,.79-.92,1.06-1.2,.1-.11,.4-.42,.54-.57-.12-.33-.26-.68-.43-1.05l-.3-.65-.26-.41s-.03-.07-.05-.11c0,0,0,0-.01,.01l-.04-.06c-.32,.35-.64,.61-.94,.78-.3,.16-.61,.25-.9,.25-.26,0-.51-.07-.74-.2-.23-.13-.43-.35-.61-.64-.29-.45-.53-.88-.71-1.27-.19-.39-.32-.73-.4-1-.08-.25-.13-.6-.14-1.03-.02-.44-.02-.96-.03-1.56l1.56-5.63-.08-.49c.15-.23,.27-.43,.38-.61,.1-.17,.19-.3,.26-.41,.01-.05,.06-.2,.25-.59l.62-1.32c.23-.52,.4-.92,.51-1.21,.12-.3,.18-.49,.18-.6v-.43c0-.13,.02-.24,.03-.31l.35-.47c.03-.21,.07-.39,.1-.54,.03-.16,.05-.3,.03-.37,.16-.18,.3-.38,.41-.6,.11-.22,.17-.45,.19-.68Zm-8.46,12.01c0,.55-.24,1.3-.72,2.22-.48,.92-1.23,2.06-2.23,3.38-.96,1.24-1.81,2.22-2.51,2.93-.69,.69-1.28,1.12-1.69,1.27-.11-.1-.17-.19-.18-.24,.19-.48,.38-.9,.55-1.23l1.31-2.18c.35-.59,.64-1,.84-1.24,.73-.82,1.3-1.52,1.71-2.08,.41-.57,.67-.98,.77-1.22,.49-.39,.91-.75,1.27-1.07,.32-.29,.6-.55,.83-.78,.04,.1,.05,.18,.05,.24Z"/>
    <path class="cls-1" d="M422.84,204.86c.14-.06,.36-.11,.66-.14,.39-.05,.84-.12,1.33-.22,.6,.21,1.21,.37,1.81,.48,.6,.11,1.22,.16,1.84,.16,.15,0,.27-.05,.37-.14,.1-.1,.14-.24,.14-.44,0-.15-.02-.36-.05-.64-.03-.27-.04-.47-.02-.59,.03-.28,.05-.54,.05-.8v-.78c-.05-.35-.16-.63-.32-.83-.16-.2-.38-.3-.65-.3h-.03c-.25,.12-.43,.22-.5,.3-.24-.13-.45-.25-.62-.35-.18-.11-.35-.18-.53-.19l-.65,.19c-.31-.06-.55-.12-.72-.17-.16-.05-.4-.1-.73-.15-.21,0-.49-.03-.83-.08-.35-.06-.62-.09-.8-.09-.96,0-1.84,.05-2.62,.15-.79,.1-1.52,.25-2.16,.44-.25-.03-.51-.04-.77-.04-.33,0-.68,.02-1.04,.07-.65,.08-1.36,.25-2.11,.49-.38,.13-.71,.33-.99,.57-.27,.25-.48,.56-.61,.93-.07,.2-.12,.49-.17,.86-.05,.38-.09,.85-.12,1.39-.18,.39-.31,.71-.39,.96-.08,.25-.13,.43-.13,.53,0,.19,.05,.35,.14,.47,.09,.12,.22,.18,.38,.18h0c1.65-.45,3.33-.92,5.01-1.39,.24-.07,.47-.12,.69-.17l.67-.16,.27-.21c.25,.03,.47,.07,.63,.12,.15,.04,.26,.08,.3,.08,0,0,0,0,.01,0l.14,.41c-.02,.39-.02,.72-.02,1v.7c-.13,.96-.25,1.73-.36,2.32-.11,.59-.22,1-.31,1.27,.08,.21,.15,.42,.21,.61,0,.05-.02,.18-.12,.48-.08,.25-.2,.58-.37,1.02,.02,.11,.03,.24,.05,.39,.02,.14,.02,.28,.02,.41,0,.24-.02,.51-.07,.81-.05,.3-.1,.64-.15,1.01-.05,.44-.09,.81-.13,1.1-.04,.31-.06,.56-.06,.75,0,.44-.02,1-.07,1.67-.05,.68-.13,1.47-.24,2.38-.11,.91-.19,1.71-.23,2.4-.04,.69-.06,1.26-.06,1.72,0,.97-.02,1.94-.07,2.9,.13,1.33,.23,2.63,.32,3.91,.08,.19,.14,.35,.18,.48,.04,.14,.08,.24,.11,.26-.08,.5-.14,1.03-.17,1.57,0,.19,.08,.34,.25,.45,.16,.11,.42,.16,.79,.16,.1,0,.21-.05,.33-.16,.11-.1,.24-.23,.38-.38,.24-.12,.51-.26,.82-.45,.11-.09,.19-.2,.25-.36,.06-.14,.11-.33,.16-.59-.07-.26-.14-.53-.22-.79,0-.32,0-.81,.02-1.46,.02-.65,.02-1.13,.02-1.44,0-.16,.03-.41,.1-.75,.07-.35,.1-.62,.1-.8,0-.15-.02-.34-.06-.58-.04-.23-.06-.4-.07-.48,.11-.24,.22-.46,.32-.68,.08-.67,.17-1.35,.27-2.07,0,0,.42-3.07,.49-3.54-.02-.26-.04-.51-.08-.73,.1-.35,.2-.66,.3-.93,.11-.27,.18-.51,.23-.73,.08-.36,.15-.68,.19-.95,.05-.28,.08-.53,.07-.73,.11-.47,.23-.88,.34-1.25,.11-.36,.18-.68,.2-.93l.05-.78c.02-.22,.04-.42,.07-.57,.05-.21,.11-.52,.19-.94,.08-.41,.19-.94,.34-1.57,.08-.33,.15-.75,.22-1.26,.06-.51,.1-.94,.1-1.29,0-.15-.01-.31-.04-.47-.02-.17-.07-.34-.14-.52-.16-.46-.32-.82-.47-1.09-.15-.27-.29-.46-.41-.55-.15-.11-.29-.23-.4-.35s-.2-.25-.25-.32c0-.07,.06-.13,.18-.18Z"/>
    <path class="cls-1" d="M432.52,215.3c.24,0,.49,.01,.73,.04,.25,.02,.84,.09,.84,.09,.11,0,.28-.05,.5-.14,.26-.11,.58-.29,.95-.55,.36-.21,.67-.46,.93-.73s.46-.6,.61-.96c.07-.16,.16-.43,.28-.81,.12-.37,.26-.85,.43-1.44l.24-1.16c0-.33-.1-.58-.3-.76-.2-.17-.51-.26-.93-.26-.35,0-.65,.04-.92,.11-.26,.07-.48,.17-.67,.3-.37,.44-.7,.83-.93,1.14-.48,.05-1.01,.45-1.62,1.21-.61,.76-.9,1.37-.9,1.88,0,.56,.06,1.01,.19,1.34,.13,.34,.31,.57,.56,.7Z"/>
    <path class="cls-1" d="M514.34,227.98s-.03-.06-.04-.09c0,0,0,0,0,0-.01-.02-.02-.04-.04-.06-.25,.21-.47,.35-.64,.44-.19,.09-.7,.55-1.57,1.41-.34,.32-.65,.58-.94,.76-.28,.18-.52,.27-.72,.27-.08,0-.14-.02-.19-.06-.04-.04-.06-.08-.06-.14,0-.6,.25-1.52,.75-2.71,.5-1.21,.76-2.16,.76-2.81,0-1.24-.16-2.3-.49-3.16-.33-.87-.83-1.56-1.48-2.05-.08-.07-.21-.16-.38-.26-.36-.36-.73-.7-1.11-1.03-.39-.33-.88-.5-1.45-.5-.53,0-1.23,.28-2.07,.84-.84,.55-1.38,1.05-1.6,1.51l.25,1.13c-.34,.77-.88,1.61-1.63,2.5s-1.72,1.83-2.91,2.82c-.24,.35-.49,.69-.73,1.07,0,0,0,0,0-.01-.17,.14-.35,.26-.52,.34s-.31,.16-.39,.21c-.4,.22-.86,.42-1.37,.58-.51,.16-1.09,.27-1.69,.31-.38-.08-.72-.17-1-.27-.27-.09-.48-.19-.61-.29-.21-.12-.38-.31-.49-.55-.12-.25-.18-.54-.18-.87,0-.18,.04-.36,.11-.52,.08-.16,.17-.3,.28-.4,1.34-1.31,2.42-2.49,3.22-3.51,.8-1.02,1.31-1.94,1.54-2.72l.22-.78c.11-.39,.2-.67,.25-.85,.04-.11,.05-.14,.08-.21-.06-.37-.11-.71-.16-1.03-.1-.38-.2-.69-.31-.96-.11-.27-.22-.47-.34-.6-.17-.2-.39-.35-.65-.44-.26-.08-.6-.12-1.01-.12-.3,0-.57,.02-.82,.07s-.47,.11-.69,.18c-.21,.16-.42,.31-.63,.43-.22,.13-.41,.27-.6,.43-.37,.45-.75,.9-1.12,1.35-.37,.44-.73,.85-1.08,1.24-.4,.66-.73,1.27-.99,1.81-.25,.54-.45,.98-.6,1.34-.13,.36-.25,.69-.35,1-.11,.31-.18,.58-.23,.82-.02,.32-.05,.64-.1,.95l-.06,.42-.06,.5c-.47,.38-.87,.74-1.18,1.09-.29,.33-.53,.66-.72,1.04,0,0,0,0,0,0-.1,.1-.19,.17-.29,.23-.1,.06-.19,.11-.22,.15-.11-.1-.17-.19-.17-.26,0-.06,.08-.31,.6-1.35,.41-.82,.61-1.59,.61-2.3,0-.34-.06-.61-.18-.8-.13-.21-.34-.31-.65-.31-.11,0-.27,.03-.48,.09-.21,.06-.35,.08-.44,.08-.13,0-.32-.02-.57-.06-.26-.04-.46-.06-.57-.06-.5,0-1.08,.36-1.71,1.06-.62,.69-1.31,1.73-2.06,3.12-.01,.17-.04,.31-.08,.42-.04,.12-.07,.23-.08,.34l-.18,.61c-.06,.19-.12,.36-.21,.55,0,.28,.13,.54,.37,.79,.24,.24,.58,.45,.99,.55-.21,.63-.52,1.11-.94,1.41-.42,.31-.95,.46-1.58,.46-.27,0-.51-.13-.73-.38-.22-.26-.37-.64-.45-1.15-.1-.39-.19-.79-.29-1.2s-.19-.83-.27-1.24v-2.14c0-.28,.1-.62,.28-1.02,.19-.4,.49-.87,.87-1.4,.68-1.02,1.26-1.93,1.72-2.73,.46-.8,.83-1.46,1.1-1.98,.09-.09,.17-.23,.26-.46v-.52s.72-.74,.72-.74c.05-.1,.22-.4,.5-.92,.28-.52,.68-1.26,1.18-2.21,.41-.75,.73-1.38,.98-1.9,.24-.52,.4-.96,.47-1.3,.05-.16,.18-.57,.39-1.23,.21-.66,.51-1.53,.9-2.64,.26-.77,.46-1.5,.61-2.16,.15-.66,.22-1.27,.22-1.8,0-.87-.13-1.53-.37-1.97-.26-.45-.63-.68-1.11-.68-.3,0-.6,.04-.91,.12-.3,.08-.6,.19-.9,.32-.52,.26-1.08,.53-1.7,.82-.21,.21-.4,.41-.56,.6-.16,.19-.31,.36-.47,.53-.6,.86-1.2,1.88-1.79,3.04-.59,1.16-1.16,2.49-1.7,3.97-.07,.23-.3,.97-.7,2.22-.41,1.26-.97,3.03-1.7,5.32-.11,.42-.24,.98-.38,1.67-.14,.69-.27,1.51-.38,2.43-.09,.89-.21,1.69-.35,2.37-.14,.67-.29,1.23-.43,1.66-.42,.46-.77,.85-1.05,1.17l-.61,.72-.06,.11s0,0,0,0c-.08,.06-.16,.11-.23,.15-.07,.04-.14,.05-.21,.05-.35,0-.77-.31-1.24-.93-.49-.63-1.05-1.61-1.68-2.9-.1-.2-.27-.43-.52-.71-.25-.27-.56-.57-.93-.9-.08-.07-.17-.12-.25-.17-.09-.06-.19-.08-.28-.08-.46,0-.93,.1-1.41,.28-.48,.19-.95,.47-1.4,.82-.44,.33-.84,.64-1.22,.95l-1.13,.94c-.23,.32-.42,.59-.59,.8-.17,.21-.31,.37-.36,.47-.12-.06-.25-.15-.25-.25,0-.1,0-.2,.02-.31,.02-.11,.06-.24,.12-.4,.36-.85,.61-1.74,.76-2.66,.15-.91,.22-1.88,.22-2.87,0-.69-.11-1.22-.34-1.58-.23-.37-.6-.56-1.09-.56-.45,0-1.06,.27-1.79,.81-.73,.53-1.59,1.33-2.57,2.41-1.12,1.23-2.04,2.21-2.75,2.92-.69,.69-1.16,1.09-1.36,1.2-.09,0-.15-.02-.19-.06-.04-.04-.06-.11-.06-.19,.1-.4,.22-.82,.37-1.27,.13-.55,.23-1.09,.31-1.62,.07-.53,.11-1.03,.11-1.48,0-.55-.11-.97-.33-1.27-.22-.3-.56-.45-1.03-.45h-.02c-.7,.29-1.34,.55-1.95,.8-.58,.6-1.1,1.13-1.53,1.59-.44,.46-.81,.84-1.12,1.13-.61,.56-1.25,1.19-1.92,1.89-.67,.7-1.37,1.51-2.09,2.4l-.44,.62c-.11,.16-.2,.29-.3,.45h0s-.79,.63-.79,.63c-.27,.22-.52,.43-.77,.64-.32,.25-.63,.43-.93,.54-.3,.1-.59,.15-.88,.15-.23,0-.43-.04-.58-.1-.15-.07-.26-.17-.34-.33-.04-.05-.14-.26-.35-1.1-.16-.66-.3-1.15-.41-1.46-.07-.52-.15-1.04-.24-1.55-.1-.51-.2-1.02-.32-1.52-.13-.58-.4-1.03-.81-1.32-.4-.29-.89-.44-1.48-.44-.22,0-.45,.06-.66,.18-.22,.12-.42,.31-.59,.58-.41,.59-1.18,1.38-2.27,2.34-1.1,.96-1.88,1.75-2.33,2.38l-.06,.22-.14,.27c.06,.04,.11,.1,.15,.17,.05,.08,.09,.16,.12,.25,.13,.39,.26,.73,.38,1.03,.1,.24,.2,.45,.33,.64,0,.02,.03,.06,.03,.09,0,0,0,0,.01-.01,.02,.02,.02,.04,.04,.06,.63-.69,1.17-1.22,1.6-1.56,.42-.34,.76-.51,1-.51,.04,0,.14,.03,.31,.25,.14,.18,.31,.46,.51,.83,.16,.24,.31,.46,.44,.64,.13,.17,.22,.33,.28,.44,.54,1.58,1.03,2.53,1.48,2.88,.46,.35,1.41,.53,2.92,.53,.25,0,.62-.12,1.1-.36,.47-.24,1.05-.6,1.71-1.09,.6-.44,1.12-.82,1.55-1.16,.38-.29,.67-.55,.92-.83v.04s.1-.1,.1-.1c.1-.12,.19-.24,.27-.36,.09-.13,.15-.26,.19-.37,.47-.46,.87-.85,1.2-1.19,.33-.34,.6-.64,.84-.91,.34-.46,.64-.81,.9-1.02,.25-.21,.47-.31,.65-.31,.1,0,.17,.03,.23,.09,.06,.06,.09,.14,.09,.23,0,.68-.29,1.88-.86,3.57-.59,1.72-.87,2.82-.87,3.37,0,.26,.14,.45,.42,.58,.26,.12,.64,.18,1.14,.18,.12,0,.36-.09,1.16-.83,.57-.54,1.36-1.39,2.33-2.52,.62-.68,1.22-1.36,1.81-2.03l1.73-1.97c.52-.39,.9-.69,1.14-.9,.24-.21,.45-.42,.64-.63,.18-.16,.33-.27,.46-.34s.24-.1,.35-.1c.11,0,.21,.04,.29,.13,.08,.08,.13,.2,.13,.35l-.35,2.46c-.09,.61-.16,1.03-.21,1.24-.01,.16-.09,.44-.21,.84-.13,.41-.3,.95-.51,1.63-.16,.54-.29,1-.39,1.4-.1,.4-.15,.73-.15,.98,0,.22,.04,.41,.1,.57,.07,.17,.18,.29,.35,.35,.41,.05,.74,.07,.98,.07,.51,0,1.73-1.23,3.73-3.76,1.94-2.46,3.34-3.71,4.15-3.71,.61,0,1.51,.72,2.68,2.15,1.2,1.46,2.39,2.2,3.52,2.2,.35,0,.76-.12,1.22-.36,.45-.23,.96-.58,1.55-1.09,0,.01,.01,.03,.02,.04l.22-.23,.12-.07,.18,.05c.04,.06,.08,.13,.1,.21,.02,.08,.04,.18,.04,.31,0,.77,.07,1.58,.22,2.42,.15,.84,.38,1.77,.73,2.79,.26,.23,.5,.43,.72,.6,.22,.17,.43,.31,.63,.41,.26,.16,.5,.28,.71,.34,.21,.06,.42,.09,.64,.09,.48,0,.96-.11,1.43-.34,.47-.22,.95-.57,1.42-1.04,.31-.27,.58-.5,.82-.69,.24-.19,.45-.34,.62-.46,.39-.49,.74-.91,1.06-1.26,.32-.36,.59-.68,.76-.93,.23,.02,.42,.03,.58,.04,.16,0,.42,.01,.42,.01,.37-.03,.82-.24,1.35-.62,.49-.35,1.06-.86,1.7-1.53v.02s.09-.11,.09-.11c0,0,.02-.02,.02-.03,0,0,.01-.01,.02-.02,0,0,0,0,0,0,.18-.21,.34-.38,.48-.49,.15-.11,.28-.17,.39-.17,.14,0,.27,.08,.38,.23,.12,.16,.26,.43,.4,.78,.18,.44,.35,.82,.51,1.14,.16,.32,.33,.57,.5,.73,.31,.35,.71,.61,1.18,.8,.47,.18,1.01,.27,1.62,.27,.45,0,.86-.04,1.19-.11,.34-.08,.65-.2,.87-.35,.64,0,1.36-.24,2.12-.7,.75-.46,1.59-1.14,2.51-2.1,0,.01,.01,.02,.02,.04,.15-.17,.26-.32,.33-.45l.12-.27c.53-.35,.97-.69,1.3-1,.33-.31,.57-.59,.69-.82,.25-.13,.56-.38,.94-.77s.8-.86,1.27-1.44c.43-.53,.86-.98,1.28-1.33,.42-.35,.81-.63,1.11-.81,.51,.06,.9,.31,1.15,.74,.26,.44,.39,1.09,.39,1.94,0,.69-.09,1.48-.28,2.35-.19,.87-.46,1.83-.81,2.84-.08,.22-.18,.44-.29,.66-.11,.22-.22,.44-.32,.65-.13,.28-.23,.54-.31,.78-.08,.24-.11,.46-.11,.64,0,.48,.18,.83,.54,1.05,.35,.21,.87,.31,1.57,.31h.02c.43-.13,.81-.31,1.14-.52,1.23-.75,2.29-1.41,3.18-1.98,.88-.58,1.6-1.07,2.16-1.48,.26-.23,.48-.43,.67-.61,.19-.18,.35-.33,.52-.54-.16-.42-.33-.82-.51-1.2-.15-.32-.3-.62-.49-.93Zm-20.55-7.83c.05,.08,.07,.19,.07,.31,0,.22-.05,.44-.14,.65-.09,.22-.24,.44-.42,.66l-.5,.55c-.17,.18-.34,.36-.53,.53l-.32,.52c-.1,.16-.22,.25-.38,.25s-.2-.03-.21-.04c-.03-.03-.04-.08-.04-.16,0-.42,.3-1.1,.89-2.02,.73-1.13,1.15-1.37,1.38-1.37,.09,0,.15,.03,.2,.1Zm-11.72-12.05c.14-.25,.22-.29,.25-.29,.05,.04,.08,.08,.1,.12,.02,.05,.03,.11,.03,.18,0,.11-.02,.22-.07,.34-.05,.12-.12,.25-.21,.38l-.42,.72c-.23,.72-.43,1.36-.61,1.95-.18,.58-.33,1.1-.46,1.53-.05,.18-.18,.53-.4,1.06-.22,.53-.55,1.27-1.01,2.21-.49,1.07-.88,1.89-1.18,2.45-.33,.62-.49,.82-.51,.92,0,0,0,0-.01,.01l-.04-.17c0-.4,.09-.93,.27-1.59s.45-1.43,.83-2.3c.29-.74,.58-1.44,.87-2.08,.29-.63,.59-1.22,.9-1.73,.36-.6,.65-1.12,.88-1.56,.23-.45,.38-.84,.44-1.16,.11-.43,.23-.77,.36-.99Z"/>
    <path class="cls-1" d="M538.27,224.04c-.21-.24-.55-.36-1-.36h-4.54c-.57,.12-1.13,.22-1.64,.32-.31-.13-.69-.25-1.19-.37l-.62,.21c-.17,.06-.3,.09-.47,.14l-.38,.72c-.11,.2-.19,.37-.24,.48-.31,.28-.55,.51-.71,.7-.18,.2-.26,.35-.26,.47,0,.25,.1,.45,.3,.58,.19,.13,.44,.19,.75,.19,.21,0,.5-.03,.85-.09,.34-.06,.62-.08,.83-.08,.16,0,.95,.11,2.35,.34h.01s.01,0,.01,0c.59-.1,1.17-.2,1.74-.31h1.39c.16,0,.41,.02,.75,.07,.34,.05,.6,.08,.76,.08,.52,0,.93-.17,1.21-.51,.28-.34,.42-.84,.42-1.5,0-.47-.1-.83-.31-1.07Z"/>
  </g>
  <g>
    <polygon class="cls-2" points="113.78 166.99 90.92 117.99 68.96 70.9 57.28 45.84 28.35 45.84 51.28 95.03 76.45 149.01 84.83 166.99 84.98 167.3 113.92 167.3 113.78 166.99"/>
    <polygon class="cls-2" points="204.33 45.84 192.65 70.9 170.69 117.99 147.84 166.99 147.69 167.3 176.63 167.3 176.78 166.99 185.16 149.01 210.34 95.03 210.34 95.03 233.27 45.84 204.33 45.84"/>
    <polygon class="cls-1" points="161.49 45.84 159.31 50.51 149.27 72.04 130.81 111.63 112.34 72.04 102.3 50.51 100.13 45.84 71.19 45.84 78.97 62.52 97.88 103.07 127.68 166.99 127.83 167.3 130.81 167.3 133.79 167.3 133.94 166.99 163.74 103.07 182.65 62.52 190.43 45.84 161.49 45.84"/>
    <polygon class="cls-2" points="137.16 46.06 137.05 45.84 130.81 45.84 124.56 45.84 124.46 46.06 115.48 65.33 130.81 98.21 146.14 65.33 137.16 46.06"/>
  </g>
  <rect class="cls-2" x="253.1" y="33.68" width="9.11" height="145.78"/>
  <g>
    <path class="cls-2" d="M348.19,137.82l-3.58,29.16h-2.54l-4.08-14.49-4.04,14.49h-2.54l-3.58-29.16h4.62l1.58,14.54,2.67-9.91h2.62l2.67,9.91,1.58-14.54h4.62Z"/>
    <path class="cls-2" d="M356.93,167.3c-2,0-3.61-.57-4.83-1.71-1.39-1.33-2.08-3.15-2.08-5.46v-15.5c0-2.3,.69-4.12,2.08-5.46,1.22-1.14,2.83-1.71,4.83-1.71s3.61,.57,4.83,1.71c1.39,1.33,2.08,3.15,2.08,5.46v15.5c0,2.3-.69,4.12-2.08,5.46-1.22,1.14-2.83,1.71-4.83,1.71Zm0-25.24c-.78,0-1.35,.17-1.71,.5-.42,.39-.62,1.08-.62,2.08v15.5c0,1,.21,1.69,.62,2.08,.36,.33,.93,.5,1.71,.5s1.37-.17,1.71-.5c.42-.36,.62-1.05,.62-2.08v-15.5c0-1.03-.21-1.72-.62-2.08-.33-.33-.9-.5-1.71-.5Z"/>
    <path class="cls-2" d="M373.43,167.3c-2,0-3.61-.57-4.83-1.71-1.39-1.33-2.08-3.15-2.08-5.46v-15.5c0-2.3,.69-4.12,2.08-5.46,1.22-1.14,2.83-1.71,4.83-1.71s3.61,.57,4.83,1.71c1.39,1.33,2.08,3.15,2.08,5.46v15.5c0,2.3-.69,4.12-2.08,5.46-1.22,1.14-2.83,1.71-4.83,1.71Zm0-25.24c-.78,0-1.35,.17-1.71,.5-.42,.39-.62,1.08-.62,2.08v15.5c0,1,.21,1.69,.62,2.08,.36,.33,.93,.5,1.71,.5s1.37-.17,1.71-.5c.42-.36,.62-1.05,.62-2.08v-15.5c0-1.03-.21-1.72-.62-2.08-.33-.33-.9-.5-1.71-.5Z"/>
    <path class="cls-2" d="M390.21,166.97h-6.91v-29.16h6.91c1.97,0,3.58,.58,4.83,1.75,1.39,1.28,2.08,3.08,2.08,5.42v14.99c0,1.14-.17,2.15-.5,3.04-.39,.95-.93,1.72-1.62,2.33-1.19,1.08-2.79,1.62-4.79,1.62Zm-2.33-4.58h2.33c.83,0,1.42-.15,1.75-.46,.39-.33,.58-.99,.58-1.96v-14.99c0-.97-.21-1.67-.62-2.08-.36-.33-.93-.5-1.71-.5h-2.33v19.99Z"/>
    <path class="cls-2" d="M406.71,167.3c-1.94,0-3.55-.57-4.83-1.71-1.39-1.39-2.08-3.21-2.08-5.46v-15.5c0-2.25,.69-4.07,2.08-5.46,1.28-1.14,2.89-1.71,4.83-1.71s3.61,.57,4.83,1.71c1.39,1.33,2.08,3.15,2.08,5.46v2.58h-4.58v-2.58c0-1.03-.19-1.72-.58-2.08-.36-.33-.94-.5-1.75-.5s-1.35,.17-1.71,.5c-.42,.39-.62,1.08-.62,2.08v15.5c0,1,.21,1.69,.62,2.08,.36,.33,.93,.5,1.71,.5s1.39-.17,1.75-.5c.39-.36,.58-1.05,.58-2.08v-3.75h4.58v3.75c0,2.3-.69,4.12-2.08,5.46-1.22,1.14-2.83,1.71-4.83,1.71Z"/>
    <path class="cls-2" d="M430.11,166.97h-4.66l-2.37-11.7h-2.08v11.7h-4.58v-29.16h6.91c1.97,0,3.58,.58,4.83,1.75,1.39,1.28,2.08,3.08,2.08,5.42v3.12c0,2.36-.69,4.18-2.08,5.46-.2,.2-.42,.37-.67,.54l2.62,12.87Zm-4.46-21.99c0-.97-.21-1.67-.62-2.08-.36-.33-.93-.5-1.71-.5h-2.33v8.29h2.33c.78,0,1.35-.17,1.71-.5,.42-.39,.62-1.08,.62-2.08v-3.12Z"/>
    <path class="cls-2" d="M442.65,162.35h-5.25l-.83,4.62h-4.66l5.83-29.16h4.58l5.83,29.16h-4.66l-.83-4.62Zm-.79-4.58l-1.83-10.45-1.83,10.45h3.67Z"/>
    <path class="cls-2" d="M454.98,142.4v7.33h5.21v4.58h-5.21v12.66h-4.58v-29.16h12.08v4.58h-7.5Z"/>
    <path class="cls-2" d="M477.59,142.4h-4.66v24.57h-4.58v-24.57h-4.66v-4.58h13.91v4.58Z"/>
    <path class="cls-2" d="M485.88,167.3c-2,0-3.61-.57-4.83-1.71-1.39-1.33-2.08-3.15-2.08-5.46v-3.79h4.58v3.79c0,1,.21,1.69,.62,2.08,.36,.33,.93,.5,1.71,.5s1.37-.17,1.71-.5c.42-.36,.62-1.05,.62-2.08v-1.83c0-1.28-.51-2.39-1.54-3.33-.22-.19-.81-.56-1.75-1.08-1.3-.69-2.26-1.3-2.87-1.83-1-.89-1.76-1.9-2.29-3.04-.53-1.14-.79-2.36-.79-3.66v-.71c0-2.3,.69-4.12,2.08-5.46,1.22-1.14,2.83-1.71,4.83-1.71s3.61,.57,4.83,1.71c1.39,1.33,2.08,3.15,2.08,5.46v2.54h-4.58v-2.54c0-1.03-.21-1.72-.62-2.08-.33-.33-.9-.5-1.71-.5s-1.35,.17-1.71,.5c-.42,.39-.62,1.08-.62,2.08v.71c0,1.28,.51,2.37,1.54,3.29,.28,.22,.82,.56,1.63,1,1.44,.78,2.44,1.42,3,1.92,2.06,1.83,3.08,4.08,3.08,6.75v1.83c0,2.3-.69,4.12-2.08,5.46-1.22,1.14-2.83,1.71-4.83,1.71Z"/>
  </g>
  <g>
    <path class="cls-1" d="M313.62,46.75h12.73l-15.91,79.53h-12.5l-15.91-79.53h12.73l9.43,53.74,9.43-53.74Z"/>
    <path class="cls-1" d="M344.63,59.25v20h14.09v12.5h-14.09v22.04h20.45v12.5h-32.95V46.75h32.95v12.5h-20.45Z"/>
    <path class="cls-1" d="M389.52,127.19c-5.3,0-9.7-1.55-13.18-4.66-3.79-3.79-5.68-8.75-5.68-14.88v-42.27c0-6.13,1.89-11.09,5.68-14.88,3.48-3.1,7.88-4.66,13.18-4.66s9.84,1.55,13.18,4.66c3.79,3.64,5.68,8.6,5.68,14.88v7.05h-12.5v-7.05c0-2.8-.53-4.7-1.59-5.68-.98-.91-2.57-1.36-4.77-1.36s-3.68,.45-4.66,1.36c-1.14,1.06-1.7,2.95-1.7,5.68v42.27c0,2.73,.57,4.62,1.7,5.68,.98,.91,2.54,1.36,4.66,1.36s3.79-.45,4.77-1.36c1.06-.98,1.59-2.88,1.59-5.68v-10.23h12.5v10.23c0,6.29-1.89,11.25-5.68,14.88-3.34,3.1-7.73,4.66-13.18,4.66Z"/>
    <path class="cls-1" d="M450.53,59.25h-12.73V126.28h-12.5V59.25h-12.73v-12.5h37.95v12.5Z"/>
    <path class="cls-1" d="M473.94,127.19c-5.46,0-9.85-1.55-13.18-4.66-3.79-3.64-5.68-8.6-5.68-14.88v-42.27c0-6.29,1.89-11.25,5.68-14.88,3.33-3.1,7.72-4.66,13.18-4.66s9.84,1.55,13.18,4.66c3.79,3.64,5.68,8.6,5.68,14.88v42.27c0,6.29-1.89,11.25-5.68,14.88-3.34,3.1-7.73,4.66-13.18,4.66Zm0-68.85c-2.12,0-3.68,.45-4.66,1.36-1.14,1.06-1.7,2.95-1.7,5.68v42.27c0,2.73,.57,4.62,1.7,5.68,.98,.91,2.54,1.36,4.66,1.36s3.75-.45,4.66-1.36c1.14-.98,1.7-2.88,1.7-5.68v-42.27c0-2.8-.57-4.7-1.7-5.68-.91-.91-2.46-1.36-4.66-1.36Z"/>
    <path class="cls-1" d="M538.24,126.28h-12.73l-6.47-31.93h-5.68v31.93h-12.5V46.75h18.86c5.38,0,9.77,1.59,13.18,4.77,3.79,3.49,5.68,8.41,5.68,14.77v8.52c0,6.44-1.89,11.4-5.68,14.88-.53,.53-1.14,1.02-1.82,1.48l7.16,35.11Zm-12.16-59.99c0-2.65-.57-4.55-1.7-5.68-.98-.91-2.54-1.36-4.66-1.36h-6.36v22.61h6.36c2.12,0,3.67-.45,4.66-1.36,1.14-1.06,1.7-2.96,1.7-5.68v-8.52Z"/>
  </g>
  <rect class="cls-2" x="500.86" y="149.99" width="37.72" height="4.81"/>
  <rect class="cls-2" x="282.03" y="149.99" width="37.72" height="4.81"/>
</svg>