<svg id="Layer_1" data-name="Layer 1" xmlns="http://www.w3.org/2000/svg" viewBox="0 0 708.66 708.66"><defs><style>.cls-1{fill:#582b0d;}.cls-2{fill:#009345;}</style></defs><path class="cls-1" d="M566.57,107,485.12,293.88a127.71,127.71,0,0,0-39.09-65l-.2-.18-.22-.17a15.42,15.42,0,0,0-4.35-2.46l51.19-120.87a5.3,5.3,0,0,1,5.16-3h65.08a4.22,4.22,0,0,1,3.55,1.51,2.85,2.85,0,0,1,.33,3.25"/><path class="cls-1" d="M266.61,225.7l-.21.16-.23.19-.22.21c-12.41,11.29-22.27,23-29.31,34.82l-.09.15a126.37,126.37,0,0,0-13.27,33.63L142.1,107a2.86,2.86,0,0,1,.32-3.27,4.24,4.24,0,0,1,3.56-1.5h64.85c2.59,0,4.38,1,5.39,3Z"/><path class="cls-1" d="M382.09,129.83l-28,74.35-27.56-74.13L341,106.25q4.3-6.87,13.8-6.88,8.82,0,13.13,6.88Z"/><path class="cls-2" d="M464.62,104.48,424.32,200l-26.89,63.74-3.81,9-2.47,5.86L366,338.31q-3.54,7.94-12,7.93a14.15,14.15,0,0,1-7.33-2,10.2,10.2,0,0,1-4.68-5.9l-23.86-57-3.55-8.46L306,252.36l-22-52.5-40-95.38a3.41,3.41,0,0,1,.53-3.44,3.82,3.82,0,0,1,3.18-1.67h52.07c3.52,0,5.82,1.59,6.88,4.76l13.48,36.29,28.55,76.79L354,231.36l5.55-14.72,28.83-76.4L402,104.13q1.59-4.75,6.88-4.76h52.05A3.82,3.82,0,0,1,464.1,101a3.36,3.36,0,0,1,.52,3.44"/><path class="cls-2" d="M479.36,325.6a117.92,117.92,0,0,1-36.88,86.65,123.52,123.52,0,0,1-40,25.94,127,127,0,0,1-48.09,9.18,128.49,128.49,0,0,1-48.53-9.18,123.17,123.17,0,0,1-40.06-25.94,116.21,116.21,0,0,1-27-38.82,120.21,120.21,0,0,1-9.53-47.83,129.58,129.58,0,0,1,.85-14.84A116.28,116.28,0,0,1,244.84,266q9.38-15.72,25.73-31l26.18,57.25a60.14,60.14,0,0,0-8.94,24.24v0a68.25,68.25,0,0,0-.61,9.12q0,26.83,19.4,45.18,19.79,18.71,47.83,18.71,27.52,0,47.29-18.71,19.95-18.88,20-45.18a67.63,67.63,0,0,0-.4-7.32A58.25,58.25,0,0,0,413.74,295l24-60.07a5.54,5.54,0,0,1,2,1,118.27,118.27,0,0,1,38.68,73.48,126.67,126.67,0,0,1,1,16.16"/><path class="cls-2" d="M98,476.59h9.81L95.52,537.86H85.9L73.64,476.59h9.8L90.71,518Z"/><path class="cls-2" d="M121.87,486.22v15.41h10.85v9.63H121.87v17h15.75v9.63H112.24V476.59h25.38v9.63Z"/><path class="cls-2" d="M156.44,538.56A14.63,14.63,0,0,1,146.29,535a15.48,15.48,0,0,1-4.38-11.46V491a15.51,15.51,0,0,1,4.38-11.47,14.68,14.68,0,0,1,10.15-3.59,14.31,14.31,0,0,1,10.15,3.59Q171,483.68,171,491v5.43h-9.63V491c0-2.16-.41-3.62-1.22-4.38a5.34,5.34,0,0,0-3.68-1.05,5.17,5.17,0,0,0-3.59,1.05c-.87.82-1.31,2.28-1.31,4.38v32.56c0,2.1.44,3.56,1.31,4.37a5.17,5.17,0,0,0,3.59,1,5.34,5.34,0,0,0,3.68-1c.81-.75,1.22-2.21,1.22-4.37v-7.88H171v7.88q0,7.26-4.38,11.46Q162.74,538.57,156.44,538.56Z"/><path class="cls-2" d="M203.44,486.22h-9.8v51.64H184V486.22h-9.8v-9.63h29.23Z"/><path class="cls-2" d="M221.47,538.56q-6.3,0-10.15-3.59-4.38-4.2-4.38-11.46V491q0-7.26,4.38-11.47a16.14,16.14,0,0,1,20.3,0Q236,483.68,236,491v32.56q0,7.26-4.38,11.46Q227.77,538.57,221.47,538.56Zm0-53a5.18,5.18,0,0,0-3.59,1.05c-.87.82-1.31,2.28-1.31,4.38v32.56c0,2.1.44,3.56,1.31,4.37a5.18,5.18,0,0,0,3.59,1,5,5,0,0,0,3.59-1c.87-.75,1.31-2.21,1.31-4.37V491c0-2.16-.44-3.62-1.31-4.38A5,5,0,0,0,221.47,485.52Z"/><path class="cls-2" d="M271,537.86h-9.8l-5-24.59h-4.38v24.59h-9.63V476.59h14.53a14.32,14.32,0,0,1,10.16,3.68q4.37,4,4.37,11.38v6.56q0,7.44-4.37,11.47a9.39,9.39,0,0,1-1.4,1.14Zm-9.37-46.21c0-2-.43-3.5-1.31-4.38a5.17,5.17,0,0,0-3.59-1h-4.9v17.42h4.9a5.17,5.17,0,0,0,3.59-1.05c.88-.82,1.31-2.28,1.31-4.38Z"/><path class="cls-2" d="M331.14,476.59l-7.53,61.27h-5.34l-8.58-30.46-8.49,30.46h-5.34l-7.52-61.27h9.71l3.33,30.55,5.6-20.83h5.51l5.61,20.83,3.32-30.55Z"/><path class="cls-2" d="M349.52,538.56q-6.3,0-10.16-3.59-4.37-4.2-4.37-11.46V491q0-7.26,4.37-11.47a16.16,16.16,0,0,1,20.31,0q4.38,4.2,4.38,11.47v32.56q0,7.26-4.38,11.46Q355.82,538.57,349.52,538.56Zm0-53a5.17,5.17,0,0,0-3.59,1.05c-.88.82-1.31,2.28-1.31,4.38v32.56c0,2.1.43,3.56,1.31,4.37a5.17,5.17,0,0,0,3.59,1,5,5,0,0,0,3.59-1c.87-.75,1.31-2.21,1.31-4.37V491c0-2.16-.44-3.62-1.31-4.38A5,5,0,0,0,349.52,485.52Z"/><path class="cls-2" d="M384.18,538.56q-6.3,0-10.16-3.59-4.36-4.2-4.37-11.46V491q0-7.26,4.37-11.47a16.16,16.16,0,0,1,20.31,0q4.38,4.2,4.38,11.47v32.56q0,7.26-4.38,11.46Q390.48,538.57,384.18,538.56Zm0-53a5.17,5.17,0,0,0-3.59,1.05c-.88.82-1.31,2.28-1.31,4.38v32.56c0,2.1.43,3.56,1.31,4.37a5.17,5.17,0,0,0,3.59,1,5,5,0,0,0,3.59-1c.87-.75,1.31-2.21,1.31-4.37V491c0-2.16-.44-3.62-1.31-4.38A5,5,0,0,0,384.18,485.52Z"/><path class="cls-2" d="M419.45,537.86H404.92V476.59h14.53a14.28,14.28,0,0,1,10.15,3.68q4.38,4,4.38,11.38v31.51a18.14,18.14,0,0,1-1.05,6.39,13.12,13.12,0,0,1-3.41,4.9Q425.76,537.86,419.45,537.86Zm-4.9-9.63h4.9a5.47,5.47,0,0,0,3.68-1c.81-.7,1.22-2.07,1.22-4.11V491.65c0-2-.44-3.5-1.31-4.38a5.18,5.18,0,0,0-3.59-1h-4.9Z"/><path class="cls-2" d="M454.11,538.56A14.65,14.65,0,0,1,444,535a15.48,15.48,0,0,1-4.38-11.46V491A15.51,15.51,0,0,1,444,479.48a14.7,14.7,0,0,1,10.15-3.59,14.31,14.31,0,0,1,10.15,3.59q4.38,4.2,4.38,11.47v5.43H459V491c0-2.16-.41-3.62-1.22-4.38a5.34,5.34,0,0,0-3.68-1.05,5.18,5.18,0,0,0-3.59,1.05c-.87.82-1.31,2.28-1.31,4.38v32.56c0,2.1.44,3.56,1.31,4.37a5.18,5.18,0,0,0,3.59,1,5.34,5.34,0,0,0,3.68-1c.81-.75,1.22-2.21,1.22-4.37v-7.88h9.63v7.88q0,7.26-4.38,11.46Q460.41,538.57,454.11,538.56Z"/><path class="cls-2" d="M503.3,537.86h-9.8l-5-24.59h-4.38v24.59H474.5V476.59H489a14.32,14.32,0,0,1,10.16,3.68q4.37,4,4.37,11.38v6.56q0,7.44-4.37,11.47a9.39,9.39,0,0,1-1.4,1.14Zm-9.37-46.21c0-2-.43-3.5-1.31-4.38a5.17,5.17,0,0,0-3.59-1h-4.9v17.42H489a5.17,5.17,0,0,0,3.59-1.05c.88-.82,1.31-2.28,1.31-4.38Z"/><path class="cls-2" d="M529.64,528.15h-11l-1.75,9.71h-9.8l12.25-61.27h9.63l12.25,61.27h-9.8ZM528,518.52l-3.85-22-3.85,22Z"/><path class="cls-2" d="M555.55,486.22v15.41h10.94v9.63H555.55v26.6h-9.63V476.59H571.3v9.63Z"/><path class="cls-2" d="M603.07,486.22h-9.8v51.64h-9.63V486.22h-9.8v-9.63h29.23Z"/><path class="cls-2" d="M620.49,538.56q-6.3,0-10.15-3.59-4.38-4.2-4.38-11.46v-8h9.63v8c0,2.1.44,3.56,1.31,4.37a5.18,5.18,0,0,0,3.59,1,5,5,0,0,0,3.59-1c.87-.75,1.31-2.21,1.31-4.37v-3.85a9.2,9.2,0,0,0-3.24-7,27.54,27.54,0,0,0-3.67-2.28,34.25,34.25,0,0,1-6-3.85,19.38,19.38,0,0,1-4.81-6.39,18.07,18.07,0,0,1-1.67-7.7V491q0-7.26,4.38-11.47a16.14,16.14,0,0,1,20.3,0Q635,483.68,635,491v5.34h-9.63V491c0-2.16-.44-3.62-1.31-4.38a5,5,0,0,0-3.59-1.05,5.18,5.18,0,0,0-3.59,1.05c-.87.82-1.31,2.28-1.31,4.38v1.49a8.94,8.94,0,0,0,3.24,6.91,26.74,26.74,0,0,0,3.41,2.1,35.3,35.3,0,0,1,6.3,4A18.27,18.27,0,0,1,635,519.66v3.85q0,7.26-4.38,11.46Q626.8,538.57,620.49,538.56Z"/><path class="cls-1" d="M143.3,609.3a16.68,16.68,0,0,1-11.36-3.91,14.74,14.74,0,0,1-3.55-4.81,16.71,16.71,0,0,1-1.44-7.27,13.13,13.13,0,0,1,1.73-6.19,19.13,19.13,0,0,1,6.15-6.26l.29-.14a17.78,17.78,0,0,1-3.9-10.93v-1.23a11,11,0,0,1,1.37-5.53,10.17,10.17,0,0,1,3.91-3.87,14.16,14.16,0,0,1,13.6,0A10.07,10.07,0,0,1,154,563a11,11,0,0,1,1.38,5.53v1.23A15.17,15.17,0,0,1,154,576.2a14.69,14.69,0,0,1-4.05,5.24,7.34,7.34,0,0,1-1.23,1l1.45,1.09a35.85,35.85,0,0,1,5.28,5.21l1.59-2.68,7,4q-1.74,3-3.55,5.86a27.14,27.14,0,0,1,3.62,12.66H156a15.76,15.76,0,0,0-.87-5l-.51.58a16,16,0,0,1-5.24,3.76A14.74,14.74,0,0,1,143.3,609.3Zm-2.39-22.72-1.59,1c-2.9,2-4.34,3.93-4.34,5.72,0,2.7.74,4.7,2.24,6a8.78,8.78,0,0,0,6.08,2,7.35,7.35,0,0,0,5.42-2.61,22.19,22.19,0,0,0,2.17-2.75,34.21,34.21,0,0,0-5.71-6l-1.45-1.16Zm2.39-21.13a5,5,0,0,0-2.75.73,2.7,2.7,0,0,0-.91.9,3,3,0,0,0-.32,1.48v1.23a11,11,0,0,0,3,7.17,10.83,10.83,0,0,0,2.46-1.67,7.38,7.38,0,0,0,2.53-5.5v-1.23a2.85,2.85,0,0,0-.33-1.48,2.5,2.5,0,0,0-1-.9A5,5,0,0,0,143.3,565.45Z"/><path class="cls-1" d="M189,608.64h-8V558h8Z"/><path class="cls-1" d="M219.26,608.64h-4.63L202.48,583v25.68h-8V558h4.63l12.15,25.61V558h8Z"/><path class="cls-1" d="M246.75,566h-8.1v42.68h-8V566h-8.1v-8h24.16Z"/><path class="cls-1" d="M258.26,566v12.73h9v8h-9v14h13v7.95h-21V558h21v8Z"/><path class="cls-1" d="M300,608.64h-8.1l-4.13-20.33h-3.61v20.33h-8V558h12a11.79,11.79,0,0,1,8.39,3q3.61,3.33,3.62,9.41v5.42q0,6.15-3.62,9.48a7.31,7.31,0,0,1-1.16.94Zm-7.74-38.19a5,5,0,0,0-1.09-3.62,4.24,4.24,0,0,0-3-.87h-4v14.4h4a4.24,4.24,0,0,0,3-.87c.73-.68,1.09-1.88,1.09-3.62Z"/><path class="cls-1" d="M312.88,608.64h-8V558h8Z"/><path class="cls-1" d="M330,609.22a11.84,11.84,0,0,1-8.39-3q-3.61-3.48-3.62-9.48V569.87q0-6,3.62-9.48a13.35,13.35,0,0,1,16.79,0q3.61,3.47,3.61,9.48v26.91q0,6-3.61,9.48A11.87,11.87,0,0,1,330,609.22Zm0-43.84a4.24,4.24,0,0,0-3,.87c-.73.67-1.09,1.88-1.09,3.62v26.91c0,1.74.36,2.94,1.09,3.62a4.24,4.24,0,0,0,3,.87,4.12,4.12,0,0,0,3-.87c.72-.63,1.08-1.84,1.08-3.62V569.87c0-1.79-.36-3-1.08-3.62A4.12,4.12,0,0,0,330,565.38Z"/><path class="cls-1" d="M371,608.64h-8.1l-4.13-20.33h-3.61v20.33h-8V558h12a11.79,11.79,0,0,1,8.39,3q3.62,3.33,3.62,9.41v5.42q0,6.15-3.62,9.48a7.31,7.31,0,0,1-1.16.94Zm-7.74-38.19a5,5,0,0,0-1.09-3.62,4.24,4.24,0,0,0-3-.87h-4.05v14.4h4.05a4.24,4.24,0,0,0,3-.87c.73-.68,1.09-1.88,1.09-3.62Z"/><path class="cls-1" d="M386.89,609.22a11.87,11.87,0,0,1-8.4-3q-3.62-3.48-3.61-9.48V590.2h8v6.58c0,1.74.36,2.94,1.08,3.62a4.28,4.28,0,0,0,3,.87,4.09,4.09,0,0,0,3-.87c.73-.63,1.09-1.84,1.09-3.62V593.6a7.64,7.64,0,0,0-2.68-5.79,22.68,22.68,0,0,0-3-1.88,28.53,28.53,0,0,1-5-3.19,16,16,0,0,1-4-5.28,14.87,14.87,0,0,1-1.37-6.36v-1.23q0-6,3.61-9.48a13.35,13.35,0,0,1,16.79,0q3.62,3.47,3.62,9.48v4.41h-8v-4.41c0-1.79-.36-3-1.09-3.62a4.09,4.09,0,0,0-3-.87,4.28,4.28,0,0,0-3,.87c-.72.67-1.08,1.88-1.08,3.62v1.23a7.41,7.41,0,0,0,2.67,5.71,21.82,21.82,0,0,0,2.82,1.74,28.64,28.64,0,0,1,5.21,3.33,15.1,15.1,0,0,1,5.36,11.72v3.18q0,6-3.62,9.48A11.84,11.84,0,0,1,386.89,609.22Z"/><path class="cls-1" d="M435.72,608.64h-21V558h8v42.69h13Z"/><path class="cls-1" d="M447.51,608.64h-8V558h8Z"/><path class="cls-1" d="M486.72,558v50.64h-8V583.39l-6.44,17.3H467.7l-6.44-17.3v25.25h-8V558h4.56L470,586.07,482.17,558Z"/><path class="cls-1" d="M500.47,608.64h-8V558h8Z"/><path class="cls-1" d="M528.25,566h-8.1v42.68h-8V566h-8.1v-8h24.16Z"/><path class="cls-1" d="M539.75,566v12.73h9v8h-9v14h13v7.95h-21V558h21v8Z"/><path class="cls-1" d="M569.71,608.64h-12V558h12a11.79,11.79,0,0,1,8.39,3q3.61,3.33,3.61,9.41v26a14.92,14.92,0,0,1-.86,5.28,10.84,10.84,0,0,1-2.82,4.05A11.93,11.93,0,0,1,569.71,608.64Zm-4.06-7.95h4.06a4.48,4.48,0,0,0,3-.8c.68-.58,1-1.71,1-3.4v-26a5,5,0,0,0-1.09-3.62,4.27,4.27,0,0,0-3-.87h-4.06Z"/><path class="cls-1" d="M592.76,587.3v-8H635v8Z"/><path class="cls-1" d="M73.64,587.3v-8H115.9v8Z"/></svg>